<?xml version="1.0" encoding="utf-8"?>
<!-- Generator: Adobe Illustrator 25.4.1, SVG Export Plug-In . SVG Version: 6.00 Build 0)  -->
<svg version="1.1" id="레이어_1" xmlns="http://www.w3.org/2000/svg" xmlns:xlink="http://www.w3.org/1999/xlink" x="0px"
	 y="0px" viewBox="0 0 2834.65 850.39" style="enable-background:new 0 0 2834.65 850.39;" xml:space="preserve">
<style type="text/css">
	.st0{display:none;}
	.st1{display:inline;fill:#0078BB;}
	.st2{display:inline;fill:#00A0A8;}
	.st3{display:inline;fill:#F9CE25;}
	.st4{display:inline;}
	.st5{fill:#E05C43;}
	.st6{display:inline;fill:#E05C43;}
	.st7{display:inline;enable-background:new    ;}
	.st8{fill:#5CB08E;}
	.st9{enable-background:new    ;}
	.st10{fill:#323333;}
</style>
<g id="레이어_4" class="st0">
	<path class="st1" d="M517.35,482.65c-1.79-4.92-4.34-9.79-8.03-13.53c-1.71-1.42-3.31-3-5.29-4.05c-2.96-1.54-6.25-2.4-9.54-2.98
		c-3.88-0.16-7.77,1.27-11.33,2.68c-1.84,0.94-3.61,2.06-5.28,3.31c-4.75,1.27-9.16,3.73-13.09,6.78c-0.96-2.23-2.07-4.37-3.35-6.41
		c1.91-2.47,3.81-4.93,5.72-7.4c3.48-5.99,5.23-12.46,5.25-19.4c0.19-2.9,0.15-5.81,0.39-8.7c-0.02,0.12-0.03,0.24-0.05,0.37
		c0.04-0.7,0.06-1.39,0.08-2.09c1.35-0.03,2.63-0.5,3.67-1.54c0.52,1.39,1.19,2.72,2.14,3.92c1.33,2.79,4.11,4.73,7.2,5
		c0.63-0.12,1.26-0.28,1.89-0.45c3.6-0.84,7.21-1.69,10.84-2.4c2.15-0.5,4.44-0.56,6.6-1.07c0.27-0.04,0.63-0.11,1.12-0.19
		c2.27-0.43,4.7-0.2,6.81-1.24c0.57-0.25,1.04-0.65,1.43-1.18c0.04-0.02,0.07-0.05,0.11-0.08c2.43-0.61,4.61-1.79,5.71-4.32
		c3.29-4.73,3.85-10.7,4.09-16.32c-0.19-5.4-0.87-11.07-3.64-15.76c-0.67-2.23-1.51-4.38-2.44-6.49c0.4-3.19,0.74-6.38,1.06-9.57
		c0.27-2.7,0.49-5.4,0.72-8.1c0.12-1.12,0.07-2.37-0.57-3.33c-0.68-1.08-1.43-0.71-1.93,0.03c-0.32-2.11-0.77-4.27-1.42-6.26
		c-0.03-1.81-0.11-3.62-0.28-5.43c-0.24-2.92-0.57-6.09-2.33-8.52c-2.54-2.63-4.37,0.87-5.01,3.18c-0.22,0.98-0.38,1.96-0.52,2.96
		c-0.25,0.07-0.49,0.16-0.74,0.25c-0.8-4.8-1.06-9.85-4.09-13.77c-0.55-0.47-1.1-0.93-1.66-1.4c-0.59-0.37-1.19-0.52-1.78-0.48
		c-1.6-1.95-3.58-3.45-6.29-3.54c-1.96,0.31-3.74,1.18-5.22,2.43c-0.64-1.17-1.45-2.23-2.62-2.99c-0.46-0.59-1.02-0.98-1.68-1.19
		c-2.4-2.07-5.81-2.95-8.73-1.38c-0.18,0.1-0.35,0.22-0.52,0.32c0.23-4.5,0.49-9,0.5-13.5c-0.2-6.95-1.17-13.86-2.11-20.76l0,0
		c0.1-2.76-0.26-5.39-1.06-7.9c0-0.02-0.01-0.04-0.01-0.07h-0.01c-0.4-1.22-0.89-2.42-1.5-3.58c-1.21-3.72-3.27-6.93-6.2-9.64
		c-2.02-1.56-4.04-3.12-6.07-4.69c-3.44-2.19-7.15-3.38-11.14-3.56c-1.04-0.28-2.07-0.44-3.11-0.51c-2.28-3.2-5.24-5.94-8.6-7.92
		c-1.91-1.22-3.91-2.09-6.01-2.63c-0.44-0.17-0.87-0.34-1.33-0.46c-3.65-1.92-7.58-2.8-11.79-2.64c-2.71,0.36-5.42,0.73-8.14,1.09
		c-2.44,1.03-4.87,2.06-7.31,3.09c-3.08,1.66-5.63,3.85-7.66,6.56l-0.22,0.17c-3.47,3.49-5.86,7.6-7.19,12.34
		c-0.46,2.58-0.9,5.16-1.19,7.76c-1.01,7.58-2.07,15.18-2.29,22.83c0.06,1.7,0.2,3.41,0.38,5.1c0,0.98,0.05,1.95,0.12,2.91
		c-0.34-0.04-0.67-0.09-1.01-0.13c-4.3-0.61-8.63-1.27-12.98-1.1c-1.87,0.18-3.74,0.36-5.62,0.56c0-8.97-0.34-17.93-1.05-26.87
		c-0.27-3.49-0.6-6.97-0.97-10.44c-0.02-0.16-0.02-0.31-0.03-0.47c0.01-0.08,0.02-0.17,0.03-0.25c-0.34-2.56-0.69-5.12-1.03-7.68
		c-0.89-3.76-2.62-7.04-5.17-9.83c-1.28-2.17-3.01-3.9-5.18-5.18c-2.79-2.55-6.07-4.28-9.83-5.17c-2.56-0.34-5.12-0.69-7.68-1.03
		c-2.56,0.34-5.12,0.69-7.68,1.03c-3.76,0.89-7.04,2.62-9.83,5.17c-1.5,0.97-2.85,2.1-4.04,3.37c-2.99-1.52-6.16-2.37-9.52-2.52
		c-2.77-0.74-5.54-0.74-8.31,0c-4.16,0.19-8.04,1.43-11.63,3.71c-2.11,1.63-4.22,3.26-6.33,4.89c-2.03,2.04-3.72,4.28-5.09,6.7
		c-3.04,4.09-4.59,9.24-4.33,14.33c-0.06,0.42-0.11,0.84-0.17,1.26c-0.06,0.42-0.11,0.85-0.17,1.27c-1.01,4.65-1.85,9.34-2.59,14.04
		c-0.19,0.66-0.36,1.33-0.5,2.01c-1.19,5.1-2.37,10.2-3.37,15.34c-0.26,0.72-0.51,1.44-0.75,2.17c-0.9,5.01-1.52,10.08-1.55,15.18
		c-0.02,0.39-0.06,0.79-0.08,1.18c-0.13,1.11-0.21,2.22-0.25,3.33c-1.18-0.49-2.36-0.97-3.52-1.48c-4.42-1.56-9.43-2.05-14.1-2.2
		c-3.17,0.47-6.38,0.74-9.52,1.36c-3.68,1.2-7.32,2.58-10.72,4.46c-3.55,2.8-7.66,5.15-10.05,9.12c-3.49,3.75-5.11,8.57-7.03,13.22
		c-0.88,3.22-0.96,6.62-1.52,9.91c0.17,1.82,0.35,3.66,0.59,5.48c-0.37,0.94-0.72,1.89-1.02,2.85c-1,4.31-0.78,8.43,0.04,12.74
		c0.62,2.01,1.6,3.89,2.37,5.84c1.21,2.05,2.89,3.8,4.28,5.73c2.21,2.28,4.88,4.15,7.48,5.96c3.17,1.4,6.34,2.97,9.71,3.84
		c2.93,0.62,5.92,0.86,8.88,1.3c4.5,0.5,9.02-0.38,13.44-1.17c3.32-0.81,6.41-2.28,9.55-3.62c-0.59,7.43-1.03,14.88-1.27,22.33
		c-0.02,0.15-0.05,0.29-0.08,0.44c-1.5,11.15-3.37,22.39-3.51,33.66c-2.97-0.84-5.89-1.84-8.77-2.95c-5.2-2.58-9.97-6.01-15.56-7.75
		c-10.21-2.6-20.59,1.72-26.14,10.62c-0.75,1.78-1.5,3.56-2.25,5.34c-0.51,2.09-0.77,4.25-0.94,6.39c-0.8,1.13-1.57,2.29-2.28,3.47
		c-2.39,4.96-4.32,9.9-4.24,15.49c-0.14,4.42,1.78,9.4,3.74,13.46c2.41,3.08,4.56,6.44,7.72,8.83c4.07,3.07,7.91,6.58,12.64,8.6
		c3.13,1.25,6.15,2.82,9.42,3.69c3.9,0.81,7.92,1.44,11.91,1.47c2.04-0.23,4.1-0.44,6.15-0.73c-1.56,5.85-2.3,11.91-3.06,17.92
		c-1,8.01-1,16.19,0.18,24.19c0.82,7.58,2.4,15.08,5.37,22.13c2.01,4.48,3.46,9.29,6.43,13.25c1.96,2.49,3.82,5.06,5.85,7.5
		c0.09,0.08,0.18,0.16,0.27,0.24c-0.55,1.36-0.87,2.86-0.88,4.53c0.05,4.08,2.18,7.36,5.22,9.24c2.26,7.44,9.13,13.41,16.99,13.88
		c1.11,0.44,2.21,0.46,3.33,0.28c3.2-0.26,6.31-0.89,9.27-2.01c0.41-0.08,0.83-0.16,1.24-0.24c15.4-2.56,28.12-8.77,29.05-9.14
		c3.28-1.38,5.19-4.33,7.27-7.03c1.37-2.15,2.11-4.46,2.22-6.95c0.45-1.66,0.45-3.31,0-4.97c-0.11-2.49-0.85-4.8-2.22-6.95
		c-1-1.45-2.16-2.85-3.46-4.11c1.63-2.33,3.13-4.74,4.41-7.27c2.24-5.01,4.55-10.03,6.22-15.27c1.32-4.6,2.28-9.3,3.3-13.97
		c0.69-4.28,1.38-8.58,1.98-12.89c0.41,0.26,0.82,0.53,1.24,0.78c3.32,2.25,6.96,4.08,10.84,4.69c3.71,0.59,7.47,1.28,11.23,1.49
		c1.86,0.25,3.73,0.47,5.6,0.6c2.14-0.24,4.28-0.49,6.42-0.76c-0.57,4.63-0.77,9.32-1.07,13.97c-0.09,1.42-0.14,2.85-0.18,4.28
		c-1.28,19.17-5.07,51.38,10.41,62.94c1.86,1.21,4.91,1.73,7.12,2c2.05-0.03,4.06-0.4,6.05-0.9c2.08,0.29,4.15-0.37,6.15-0.89
		c2.75-0.64,5.35-1.73,7.84-3.04c2.25-0.65,4.48-1.34,6.68-2.14c0.19-0.06,0.36-0.16,0.53-0.26c0.42-0.17,0.86-0.3,1.31-0.42
		c0.62,1.55,1.28,3.07,1.98,4.57c1.28,3.07,3.08,5.84,5.95,7.6c5.97,3.1,11.5-3.29,13.89-8.2c0.17-0.41,0.33-0.82,0.49-1.22
		c1.73-1.5,2.92-3.83,4.12-5.7c2.43-5.24,3.44-10.92,4.53-16.55c2.03-10.71,2.72-21.6,3.51-32.45c0.73-11.43,1.31-22.93,1.33-34.41
		c1.75-0.71,3.34-1.74,4.57-3.2c0.04,0.01,0.08,0.02,0.12,0.03c1.2,0.35,2.41,0.65,3.65,0.73c1.54,0.07,3.02-0.41,4.49-0.82
		c1.32,1.22,2.73,2.36,4.26,3.25c0.15,0.07,0.31,0.13,0.46,0.19c0.29,0.41,0.59,0.81,0.9,1.21c2.21,2.27,4.6,4.76,7.63,5.78
		c2.01,0.51,4.01,1.3,6.11,1.24c4.2-0.56,8.38-2.1,11.59-4.93c4.84-3.57,8.43-8.32,11.47-13.45c1.07-1.82,2.06-3.71,2.97-5.66
		c3.48-3.76,4.98-9.12,5.87-14.07c0.47-3.15,0.7-6.33,0.68-9.5C522.5,504.62,521.32,492.91,517.35,482.65z M373.89,438.76
		c-0.35,3.84-0.66,7.69-0.91,11.54c-7.48,0.82-14.96,1.63-22.46,2.22c-5.88,0.37-11.76,0.31-17.65,0.51
		c0.21-10.87,0.88-21.72,1.69-32.57c0.37,0.32,0.74,0.64,1.13,0.94c2.85,2.18,5.56,4.6,8.75,6.27c3.77,1.61,7.48,3.56,11.5,4.47
		c4.28,0.68,8.6,1.38,12.95,1.38c1.86-0.1,3.72-0.31,5.58-0.57C374.25,434.89,374.06,436.82,373.89,438.76z"/>
	<path class="st1" d="M739.32,387.52c-1.55-2.01-3.67-3.12-6.18-3.16c-0.36,0-2.19,0.53-3.21,0.87c-0.96,0.83-1.96,1.63-2.91,2.47
		c-0.88,1.22-1.63,2.53-2.47,3.78c-2.83,6.43-4.32,13.4-6.13,20.18c-0.29,1.22-0.57,2.44-0.84,3.66c-2.38,7.03-4.6,14.12-6.97,21.15
		c-4.05,12.39-7.73,24.9-11.77,37.29c-1.97,6.36-4.16,12.65-6.25,18.98c-0.59-0.26-1.23-0.43-1.92-0.49
		c-4.98,0.42-7.24,6.48-8,10.76c-1.69,5.83-0.75,20.12,5.68,23.53c0.92,3.01,2.32,5.62,4.36,7.23c0.61,0.79,1.41,1.22,2.39,1.29
		c0.84,0.45,1.68,0.45,2.52,0c0.98-0.07,1.78-0.5,2.39-1.29c2.01-1.36,2.99-3.55,3.82-5.8c0.19-0.4,0.38-0.81,0.55-1.21
		c4.12-8.75,8.02-17.59,11.74-26.5c0.4,1.5,0.88,2.98,1.52,4.4c0.63,1.22,1.17,2.54,2.36,3.3c0.96,1.2,2.54,1.13,3.87,0.6
		c1.22-0.77,2.06-1.86,2.68-3.15c0.07-0.11,0.14-0.21,0.21-0.32c2.38-4.84,1.94-10.36,1.2-15.53c-0.04-0.28-0.08-0.56-0.11-0.84
		c0.04-0.91,0.07-1.83,0.12-2.74c0.19-2.24,1.13-12.35,2.58-23.15c3.86-10.66,7.45-21.41,10.76-32.26c0.01-0.03,0.01-0.06,0.02-0.09
		c1.4-5.53,2.86-11.12,3.31-16.82C745.68,404.77,744.92,394.83,739.32,387.52z"/>
	<path class="st2" d="M939.15,422.65c-0.16-3.38-0.39-6.59-0.76-9.75c-0.74-11.63-4.68-23.07-11.39-32.61
		c-2.72-3.87-6.36-7.31-10.63-9.4c-4.36-1.68-9-3.17-13.72-3.1c-4.99,0.4-10.11,1.8-14.28,4.66c-0.98-17.01-2.67-33.99-4.89-50.89
		c-1.79-12.51-2.3-25.66-7.18-37.42c0.04-0.25,0.1-0.49,0.14-0.74c0.84-3.68,1.37-7.41,1.65-11.16c1.05-10.7-0.53-21.57-3.07-31.99
		c-0.06-0.25-0.12-0.51-0.18-0.76c-2-7.63-4.87-15.12-9.56-21.52c-7.5,0.44-15.01,0.31-22.51-0.16c-6.91-0.44-13.77-1.63-20.69-1.45
		c-6.33,0.16-13.45,0.54-20.17-0.43c-1.17,2.22-2.02,4.65-2.91,7.1c-1.86,7.91-2.75,16.35-0.69,24.3c0.64,3.79,1.95,7.79,4.2,10.92
		c0.59,1.32,1.48,2.39,2.63,3.22c-3.31,17.32-5.4,34.84-6.58,52.42c-1.36,19.7-3.42,39.37-4.04,59.12
		c-0.3,22.29,1.17,44.56,1.36,66.84c0.01-0.07,0.02-0.15,0.03-0.23c-0.15,3.66-0.17,7.33-0.16,10.99c-1.31-1.08-2.69-2.07-4.23-2.77
		c-2.91-0.83-5.91-2.13-8.98-1.94c-2.11,0.33-4.15,1.08-6.24,1.58c-1.4,0.48-2.45,1.56-3.58,2.46c-2.58,2.25-5.41,4.28-7.59,6.95
		c-0.25,0.31-0.48,0.64-0.72,0.96c-0.8-1.8-1.84-3.34-3.14-4.3c-0.68-0.72-1.46-1.15-2.29-1.38c1.11-3.88,2.15-7.79,3.11-11.71
		c2.13-2.94,3.28-6.5,3.74-10.09c0.21-2.59,0.41-5.21,0.19-7.79c1.56-7.82,2.79-15.71,3.64-23.64c0.22-1.79,0.35-3.59,0.5-5.39
		c-0.01-0.01-0.02-0.01-0.03-0.02c0.52-3.47,0.74-6.97,0.27-10.49c-0.25-5.94-1.45-12.29-4.96-17.2c-1.01-2-2.5-3.57-4.48-4.72
		c-0.75-0.2-1.5-0.4-2.25-0.6c-0.04-0.35-0.09-0.7-0.16-1.05c1.29-0.92,2.54-1.87,3.73-2.92c2.72-3.17,4.18-7.22,4.68-11.33
		c0.2-2,0.31-4.03,0.26-6.05c4.96-2.99,9.64-6.42,13.54-10.72c7.4-8.84,8.13-25,1.12-34.21c-1.05-0.92-2.05-2.05-3.36-2.57
		c-0.17-0.05-0.34-0.09-0.51-0.14c0.25-1.61,0.33-3.27,0.23-4.92c0.9-3.04,0.32-7.98-2.45-8.51c-0.06,0-0.13,0.02-0.19,0.02
		c-0.13-0.2-0.26-0.4-0.4-0.59c-1.81-2.48-5.04-1.63-7.61-1.21c-1.81,0.34-3.72,0.69-5.61,1.15c-0.71-5.12-2.67-9.73-6.11-12.07
		c-3.59-2.33-7.83-1.24-11.79-0.84c-5.46,0.65-10.92,1.54-16.31,2.62c-4.23,0.85-8.44,1.78-12.65,2.76
		c-0.05-0.21-0.1-0.43-0.15-0.64c-1.1-4.12-3.83-8.79-8.53-9.06c-1.99,0.09-3.92,0.84-5.9,1.15c-7.55,1.6-14.97,3.77-22.39,5.9
		c-5.49,1.67-10.93,3.47-16.35,5.34c-0.75-3.56-1.77-7.02-3.25-10.36c-0.61-1.54-1.47-2.87-2.51-4.03
		c-2.31,1.33-4.91,1.66-7.52,2.38c-2.03,0.56-3.5-0.64-4.04-2.17c-9.19,1.89-18.51,2.85-27.47,1.87c-2.49-0.27-4.05-1.91-4.51-3.78
		c-2.09-0.02-4.18-0.05-6.27-0.05c-5.36,1.26-10.76,2.17-16.29,1.85c-0.17,0.26-0.34,0.52-0.52,0.78c-0.8,1.57-1.46,3.18-2.01,4.83
		c-1.31-1.46-2.95-2.47-4.99-2.63c-2.72,0.15-4.97,1.98-6.15,4.39c-0.4,0.55-0.75,1.12-1.07,1.71c-1.37,0.38-2.72,0.83-4.04,1.38
		c-3.37,1.7-6,4.4-8.1,7.48c-4.84-2.64-8.34,5.87-8.29,10.99c-0.33,2.39,0.06,4.78,0.35,7.16c0.05,0.23,0.1,0.47,0.15,0.7
		c-0.01,0.01-0.01,0.03-0.02,0.04c-0.01-0.03-0.01-0.05-0.02-0.07c0,0.03,0.01,0.06,0.01,0.09c-0.33,0.78-0.62,1.57-0.83,2.39
		c-2.62,5.98-3.92,12.47-4.04,18.96c-0.61,5.25,0.03,10.5,0.38,15.74c0.24,2.46,0.95,4.84,1.51,7.25c1.25-0.68,2.75-0.75,4.14,0.32
		c2.11,1.63,3.99,3.4,5.68,5.29c0.78,0.15,1.55,0.52,2.23,1.16c1.16-2.39,4.64-3.68,7.09-2.33c5.12,2.83,6.65,8.79,4.58,13.72
		c0.22,2.41,0.08,4.78-0.68,6.99c1.11,0.27,2.24,0.5,3.39,0.57c3.48,0.27,6.96,0.11,10.44,0.02c0.75,0.16,1.5,0.32,2.26,0.47
		c0,4.81,0,9.61,0,14.42c0,7.32,0,14.64,0,21.96c-0.44,7.24-0.71,14.48-0.4,21.73c0.18,3.62,0.45,7.38,1.12,11.02
		c-0.36,5.53-0.68,10.33-0.98,14.13c-0.45,6.32-0.84,13.01-1.21,19.42c-0.87,0.03-1.73,0.19-2.56,0.44
		c-2.1,0.48-4.22,0.98-6.19,1.84c-0.91-0.3-1.84-0.55-2.79-0.67c-0.99,0.15-1.96,0.44-2.93,0.73c-4.7-0.56-9.41,1.02-13.9,2.4
		c-2.69,0.91-4.96,2.68-7.04,4.57c-1.85,1.56-3.77,3.05-5.28,4.95c-2.04,2.56-3.74,5.4-5.48,8.17c-1.62,3.28-2.84,6.77-4.06,10.22
		c-0.83,3.52-1.54,7.07-2.26,10.61c-0.26,3.93-0.63,7.87-0.75,11.81c0.26,3.66,0.46,7.32,0.76,10.98c0.56,3.34,1.41,6.62,2.06,9.94
		c1.22,3.78,2.74,7.51,4.41,11.12c1.65,2.99,3.6,5.81,5.5,8.64c0.89,1.09,1.89,2.1,2.93,3.06c0.43-0.43,0.95-0.77,1.52-0.95
		c0.35-2.17,1.43-4.12,3.53-5.01c1.13-0.48,2.27-0.53,3.38-0.27c0.97-0.46,2.13-0.55,3.42-0.08c0.56,0.21,1.07,0.46,1.56,0.75
		c0.68-0.22,1.62-0.58,2.09-0.67c3.15-0.61,7.06,2.91,4.69,6.1c-0.44,0.59-0.96,1.15-1.52,1.66c0.58,1.89,0.84,3.92,0.8,5.86
		c-0.01,0.66-0.15,1.25-0.37,1.76c4.33,0.4,8.7-1.06,12.85-2.32c4.9-1.76,8.55-5.75,12.43-9.06c1.69-1.66,3.16-3.55,4.44-5.54
		c0.69-1.1,1.41-2.19,2.13-3.28c0.77-0.67,1.51-1.37,2.25-2.08c1.51,3.86,3.44,7.56,7.18,9.74c3.4,1.16,6.98,1.68,10.61,1.92
		c1.56,4.68,3.68,8.83,6.36,12.03c5.33,6.88,11.56,5.25,19.07,4.44c6.06-0.72,12.13-1.44,18.16-2.39
		c14.33-1.35,28.7-2.31,43.08-2.76c15.37-0.54,30.74-0.82,46.1-1.66c9.27-0.77,18.98-0.55,27.88-3.42c1.55-1.31,3.1-2.62,4.65-3.93
		l3.94-6.09c1.05-2.47,2.01-4.98,2.83-7.53c2.33-3.36,4.59-6.78,6.58-10.36c1.01,9.57,2.22,19.11,4.02,28.55
		c-0.76,3.08-1.23,6.25-1.49,9.45c-0.62,2.09-1.28,4.18-1.87,6.28c-1.57,6.31-2.72,12.68-2.89,19.19
		c-1.02,11.17-0.51,22.38,0.31,33.55c0.53,8.99,1.15,18.22,5.41,26.23c2.26,3.36,4.27,8.01,8.77,8.4c1.35,0.73,2.71,0.73,4.06,0
		c2.35-0.32,4.25-1.53,5.68-3.62c1.5-1.35,2.62-3.02,3.35-5.02c0.96-2.05,1.73-4.17,2.37-6.33c0.41,0.61,0.84,1.21,1.31,1.79
		c4.09,5.48,11.65,5.59,15.78,0c0,0,0-0.01,0.01-0.01c0.78,3.11,1.86,6.13,3.25,9.06c1.16,2.92,2.98,5.25,5.45,7.01
		c4,4.77,11.7,3.09,15.08-1.71c1.26-2.05,2.79-3.98,3.84-6.14c4.32-9.96,5.83-20.88,5.6-31.72c0.02-0.45,0.05-0.9,0.07-1.34
		c0.04-1.07,0.1-2.14,0.13-3.22c0.05-1.14,0.07-2.28,0.03-3.42c-0.14-9.43-0.17-18.86,0.24-28.28c0.15-1.66,0.3-3.33,0.45-4.99
		c1.5-19.28,1.32-11.83,1.83-45.42c1.02-24.28,2.06-48.56,2.98-72.85c0.04-1.59,0.13-3.4,0.25-5.43c3,2.65,6.27,5.02,10.34,5.68
		c3.15,0.94,6.42,1.68,9.71,1.1c3.66-0.73,7.43-1.53,10.75-3.3c2.77-1.83,5.32-4.05,7.64-6.42c2.18-2.57,3.85-5.52,5.68-8.34
		c1.69-2.64,2.66-5.65,3.8-8.55c0.98-2.55,2.07-5.08,2.59-7.78c0.65-3.34,1.56-6.63,2.01-10
		C938.76,431.89,939.31,427.26,939.15,422.65z M690.75,362.65c-5.14,3.56-10.21,7.22-14.98,11.26c-3.34,2.72-7.06,5.18-8.74,9.34
		c-2.54,5.94-3.32,12.81-1.81,19.12c0.61,3.21,1.84,6.83,4.37,9.01c-3.64,7.85-3.31,19.09,0.84,26.48c-1.75,2-3.42,4.07-4.97,6.23
		c-1.37,2.74-3.71,3.27-5.55,13.11c-0.79,7.84,0.01,17.19,6.02,22.81c-0.86,0.7-1.71,1.4-2.42,2.23c-1.15,1.73-2.39,3.44-3.35,5.29
		c-0.3,0.69-0.57,1.38-0.83,2.08c-1.01-0.29-2.02-0.62-3.09-0.6c-1.43-0.12-2.91,0.23-4.35,0.29c-0.61,0.06-1.22,0.13-1.82,0.21
		c0.42-5.34,0.78-10.69,1.2-16.04c1.06-15.25,2.59-30.47,3.72-45.72c0.71-10.64,2.22-21.81-1.61-32.01
		c0.95-9.34,2.1-18.65,3.45-27.94c0.59-4.09,1.11-8.2,1.7-12.3c0.08-0.43,0.15-0.87,0.23-1.3c0.23-1.26,0.46-2.52,0.66-3.78
		c4.96-1.36,9.87-2.89,14.76-4.51c0.15,2.48,0.54,4.93,1.14,7.26c2.85,9.34,7.35,9.41,15.57,9.36
		C690.85,362.58,690.8,362.62,690.75,362.65z"/>
	<path class="st2" d="M2600.97,351.44c-1.09-3.14-2.26-6.27-3.6-9.31c-0.68-1.21-1.42-2.39-2.18-3.55c-1.41-2.3-2.89-4.57-4.51-6.72
		c-2.71-3.27-5.94-6.39-9.65-8.47c-2.61-0.94-5.37-1.81-8.14-2.07c-3.07,0.39-6.21,1.21-9.04,2.48c-0.13,0.09-0.25,0.18-0.38,0.27
		c-0.14-1.46-0.26-2.92-0.42-4.38c-1.22-7.83-2.99-15.63-6.45-22.78c-2.49-3.95-5.16-8.53-9.21-10.8c0.1-1.03,0.14-2.06,0.11-3.09
		c0.01-2.19,0.07-4.38,0.1-6.58c0.14-11.55,0.91-23.17-0.47-34.68c-0.7-3.91-1.62-8.21-3.59-11.78c-1.38-3.53-3.22-6.92-6.25-9.24
		c-3.41-3.27-8.9-3.51-13.35-4.42c-3.18-0.53-6.37-1.04-9.55-1.58c-0.04,0-0.09,0-0.13,0c-10.41,0.68-20.8,2.9-31.15,2.43
		c-1.97,0.25-3.94,0.51-5.91,0.75c-1.67,0.2-2.85-0.63-3.5-1.84c-1.43,3.33-2.27,6.85-2.76,10.44c-1.7,7-1.64,14.46-0.81,21.56
		c0.06,0.54,0.14,1.09,0.23,1.63c0.03,2.29,0.08,4.6,0.2,6.89c-1.31,8.25-2.05,16.7-2.15,24.99c0.21,10.18,1.04,20.41,2.33,30.52
		c0.6,5.28,1.19,10.56,1.69,15.85c0.42,4.92,0.84,9.93,2.5,14.59c0.7,2.99,1.86,5.73,3.49,8.24c-0.81,4.84-1.72,9.67-2.69,14.49
		c-1.84,8.07-3.97,16.06-6.25,24.02c-3.94,13.41-7.5,26.93-11.29,40.39c-0.95,0.54-1.85,1.15-2.72,1.81
		c-0.05-2.11-0.11-4.22-0.16-6.34c-0.07-7.71,0.45-15.41,0.75-23.11c0.79-12.16-0.12-1.89,1.79-25.82c0.32-3.89,0.64-7.79,0.72-11.7
		c-0.03,0.39-0.05,0.78-0.08,1.18c0.13-6.08-0.48-12.14-2.04-18.06c-0.77-3.3-2.14-6.29-4.12-8.97c-0.6-1.33-1.44-2.45-2.52-3.36
		c0.1-0.03,0.19-0.06,0.29-0.09c1.35-1.14,2.71-2.29,4.06-3.43c1.09-1.86,2.53-3.52,3.5-5.44c0.89-2.3,1.77-4.59,2.66-6.89
		c1.44-5.69,2.11-11.32,2.32-17.17c0.13-4.45-0.36-8.82-1.46-13.11c-0.33-2.62-1.06-5.12-2.19-7.51c-0.6-2.25-1.62-4.28-3.05-6.1
		c-0.82-1.84-2.07-3.29-3.75-4.38c-1.69-1.92-3.88-2.9-6.55-2.93c-2.52,0.04-5.03,0.08-7.55,0.11c-5.71-0.19-11.42-0.6-17.09-1.14
		c-0.31-0.72-0.64-1.44-0.99-2.15c-3.41-5.48-5.86-10.02-13.04-10.26c-1.19-0.08-2.38-0.16-3.57-0.23
		c-9.9-0.83-19.69-2.63-29.47-4.42c0.72-6.44,0.56-12.98-0.1-19.44c-0.89-5.47-2.16-11.32-4.45-16.55
		c-0.47,0.47-1.08,0.82-1.82,0.94c-10.75,1.74-25.59-0.33-32.56-9.58c-0.1-0.13-0.17-0.26-0.25-0.39c-3.77,1.21-7.6,2.21-11.55,2.32
		c-1.44,0.04-2.38-0.69-2.83-1.67c-10.4,9.07-16.57,22.12-18.61,35.68c0.25,1.74-0.85,3.68-2.65,4.36
		c-7.06,2.66-14.65,3.61-22.16,3.02c-3.5,0.94-7.08,1.64-10.6,2.57c-0.52,0.14-1.01,0.15-1.49,0.09c-2.58,0.89-5.19,1.7-7.85,2.3
		c-2.41,0.54-4.36-0.55-5.32-2.22c-1.12,0.93-2.24,1.87-3.34,2.82c-0.91,1.39-1.85,2.77-2.72,4.18c-1.13,0.36-2.24,0.75-3.36,1.18
		c-1.45,1.22-2.9,2.45-4.34,3.67c-0.01,0.01-0.02,0.03-0.04,0.04c-2.63-0.18-5.28,0.11-7.82,1.05c-5.12,2.65-6.1,8.96-6.22,14.21
		c-0.03,2.59,0.44,5.32,1.41,7.82c-0.07,0.34-0.14,0.67-0.19,0.98c-0.05,0.36-0.1,0.72-0.15,1.08c-0.73,2.01-1.1,4.18-1.5,6.29
		c-0.38,1.76-0.72,3.53-0.92,5.32c-0.66,7.56-1.53,15.32,0.29,22.77c2.37,7.44,6.21,8.4,9.16,5.81c0.22,0.17,0.41,0.36,0.65,0.51
		c2.36,1.08,4.99,0.17,6.51-1.77c0.93,0.91,1.98,1.71,3.16,2.39c2.35,0.73,4.77,1.57,7.23,1.81c0.74,0.01,1.48-0.02,2.22-0.04
		c6.93,2.64,14.54,3.4,21.91,3.82c0.29,0.01,0.59,0.02,0.88,0.03c-0.11,0.18-0.23,0.35-0.34,0.53c-0.54,0.86-1.06,1.74-1.57,2.63
		c-3.74,3.54-7.09,7.5-9.88,11.82c-0.42,0.63-0.83,1.26-1.25,1.89c-0.81,0.67-1.6,1.36-2.39,2.04
		c-6.51,5.56-10.85,13.23-13.58,21.26c-0.06,0.2-0.11,0.41-0.17,0.61c-1.35,3.49-2.87,6.94-3.82,10.56
		c-1.19,5.73-2.75,11.42-3.23,17.26c-0.35,6.01-1.06,12.02-0.86,18.05c0.35,5.07,0.53,10.17,1.14,15.21
		c0.38,2.13,0.79,4.25,1.21,6.38c1.35,0.53,2.49,1.67,2.71,3.44c0.26,2.11,0.72,4.14,1.31,6.11c0.25,0.06,0.5,0.11,0.74,0.18
		c0.74-0.59,1.64-0.95,2.55-0.91c7.93,0.36,17.95,5.74,20.15,13.71c5.46,4.56,10.14,10.2,13.81,15.97c0.52,0.82,0.72,1.69,0.69,2.54
		c1,1.26,1.57,3.03,1.28,4.61c1.52,1.64,2.19,4.2,1,6.31c-0.22,0.39-0.37,0.83-0.48,1.27c0.03,0.37,0.05,0.75,0.07,1.13
		c3.01-0.13,5.99-0.93,8.91-1.75c-0.51,1.95-0.96,3.92-1.37,5.9c-0.76,3.11-1.38,6.24-1.9,9.38c-0.69,1.82-1.34,3.65-1.87,5.52
		c-0.55,2.15-1.02,4.33-1.48,6.5c-1.11,4.05-1.87,8.14-2.07,12.33c-0.67,9.04-1.25,18.1-0.68,27.16c0.52,7.59,0.82,15.23,1.94,22.77
		c1.94,11.85,4.53,23.61,7.5,35.24c1.4,5.36,3.27,10.57,5.49,15.66c2.11,2.89,3.44,6.53,6.6,8.46c2.12,2.19,4.86,3.38,7.87,3.64
		c0.64,1.53,1.32,3.03,2.02,4.52c14.26,0.2,24.25,12.08,36.01,18.72c0.95,0.5,1.9,0.99,2.85,1.48c1.18,0.61,1.85,1.47,2.12,2.4
		c1.87-1.36,3.54-3.04,5.32-4.48c0.72-0.75,1.4-1.55,2.06-2.37c2.21,1.24,4.49,2.36,6.86,3.31c19.86,7.35,36.98,7.15,56.67-0.67
		c8.22-3.29,15.11-8.95,21.75-14.68c0.55,0.18,1.1,0.35,1.68,0.48c3.23,0.83,6.43,1.99,9.8,1.88c4.74-0.31,9.53-1.16,13.84-3.28
		c0.21-0.11,0.4-0.24,0.61-0.36c1.87,1.36,3.79,2.65,5.77,3.84c6,3.3,12.69,5.63,19.51,6.33c4.16,0.19,8.19-1.12,12.16-2.19
		c2.29-0.62,4.53-1.46,6.67-2.49c6.92-3.39,12.74-8.75,17.5-14.75c3.63-4.35,6.77-9.15,9.39-14.17c1.66-3.46,2.92-7.1,4.32-10.67
		c3.09-7.9,4.87-16.28,5.97-24.67c1.62-16.38,1.26-32.96-1.15-49.25c-0.61-3.85-1.41-7.68-2.24-11.49
		c-0.98-4.85-2.11-9.67-3.51-14.41c-2.8-8.88-5.66-17.88-10.03-26.13c-0.22-0.35-0.45-0.71-0.67-1.06c0.13-1.96,0.23-3.92,0.36-5.86
		c0.11-4.5,0.17-9,0.21-13.5c0.95-1.3,1.77-2.72,2.46-4.26c0.51-1.33,1.03-2.66,1.54-3.98l0.91,0.24c2.96-0.23,5.83-1.03,7.67-3.31
		c2.71-1.86,4.04-4.89,5.86-7.52c1.53-2.31,2.56-4.88,3.07-7.71c2.19-6.81,3.21-13.78,3.84-20.82c0.53,0.13,1.06,0.26,1.56,0.43
		c1.83,0.01,3.58-0.39,5.27-1.27c2.6-2.01,5.14-4.05,6.68-7.02c0.81-0.98,1.43-2.07,1.96-3.21c0.09,0.01,0.18,0.03,0.27,0.04
		c2.91-0.4,5.82-1.27,8.43-2.63c2.06-1.13,3.69-2.88,5.52-4.33c1.09-1.15,2.07-2.39,2.95-3.68c0.96-0.23,1.9-0.81,2.81-1.75
		c2.41-2.95,3.2-6.78,3.88-10.44c0.43-2.67,0.58-5.37,0.56-8.06c0.01-0.08,0.03-0.16,0.04-0.24
		C2605.31,374.39,2604.01,362.66,2600.97,351.44z M2365.99,553.8c-1,0.07-2,0.05-2.99-0.07c-0.28-0.54-0.55-1.09-0.81-1.64
		c-0.27-0.85-0.53-1.71-0.77-2.58c0.67-0.7,1.36-1.39,2.05-2.07c0.61-0.38,1.24-0.72,1.88-1.03c0.18-0.01,0.35-0.04,0.53-0.05
		c0,0.01,0.01,0.02,0.01,0.02c0-0.01-0.01-0.02-0.01-0.02l0,0c0.38,0.94,0.77,1.88,1.16,2.81c0.38,1.1,0.74,2.21,1.08,3.32
		C2367.43,552.97,2366.72,553.41,2365.99,553.8z M2407.55,557.84c-0.57,0.78-1.12,1.58-1.68,2.37c0-0.43,0.01-0.87,0-1.3
		c0.05-1.06,0.09-2.13,0.12-3.19c0.51,0.71,1.04,1.41,1.58,2.1C2407.57,557.82,2407.56,557.83,2407.55,557.84z M2410.2,492
		c-0.35-0.66-0.71-1.32-1.11-1.96c0.45-0.4,0.88-0.81,1.32-1.23C2410.35,489.87,2410.27,490.93,2410.2,492z M2428.63,347.98
		c-0.6-2.54-1.34-5.04-2.45-7.43c-0.37-0.98-0.73-1.96-1.13-2.93c2.9-0.07,5.79-0.18,8.69-0.3
		C2431.43,340.59,2429.84,344.21,2428.63,347.98z"/>
	<path class="st3" d="M1243.26,498.02c-0.39-6.86-0.78-13.72-2.52-20.4c-1.09-6.6-3.25-12.88-5.82-19.03
		c-1.4-3.74-3.87-6.95-6.02-10.28c-1.92-2.52-4.68-4.28-7.02-6.39c-1.14-0.92-2.32-1.82-3.6-2.53c-1.07-0.57-2.19-1.05-3.34-1.46
		c-0.57-7.78-2.11-15.44-3.84-23.06c-1.7-8.58-4.77-16.78-8.01-24.88c-1.49-3.77-3.25-7.46-5.48-10.86
		c-2.16-3.21-4.07-6.66-6.56-9.63c1.08-0.25,2.15-0.55,3.21-0.92c2.92-1.69,5.13-4.01,6.62-6.97c1.64-2.08,2.81-4.41,3.49-6.98
		c0.22-0.49,0.42-0.98,0.62-1.48c2.64,0.39,5.28,0.78,7.93,1.18c3.04,0.51,6.6,0.45,9.13-1.33c1.55-1.31,3.1-2.62,4.65-3.92
		c2.52-2.99,4.34-6.33,5.46-10.03c1.29-2.73,2.13-5.59,2.5-8.59c2.94-11.34,1.67-23.37-0.98-34.65c-0.93-4.02-2.61-7.66-5.01-10.92
		c-1.49-2.95-3.7-5.28-6.62-6.97c-6.8-2.29-14-3.34-21.03-4.78c-9-1.65-17.95-3.55-26.98-4.99c-11.19-1.57-22.48-2.5-33.76-2.99
		c-17.11-0.29-34.2,1.16-51.2,2.98c-13.18,1.56-26.54,2.76-39.43,5.99c-0.95,0.48-1.83,1.1-2.65,1.84
		c-4.28,0.88-8.53,1.94-12.72,3.17c-0.16-0.83-0.34-1.66-0.56-2.48c-1.24-5.48-5.18-10.13-10.96-10.75
		c-5.32-0.19-10.43,3.37-12.34,8.3c-2.36,5.35-3.12,11.33-2.36,17.12c0.2,1.92,0.67,4.18,1.43,6.37c0.41,1.56,0.95,3.1,1.63,4.57
		c0.3,0.61,0.65,1.22,1.03,1.81c-0.94,2.36-1.92,4.72-2.46,7.21c-0.94,4.46-2.05,8.9-2.65,13.43c-0.61,6.75-1.03,13.51-1.34,20.28
		c-0.21,4.94-0.34,9.89-0.58,14.82c-0.42,5.18-0.86,10.37-1.46,15.53c-2.03,18.96-4.43,38.25-2.78,57.3
		c-0.25,0.47-0.52,0.94-0.75,1.42c-1.49,3.75-3.18,7.46-4.08,11.4c-0.79,4.23-2.08,8.4-2.38,12.71c-0.6,7.2-1.03,14.4-0.23,21.61
		c0.27,4.09,0.43,8.2,1.35,12.2c1.46,6.61,2.54,13.34,4.74,19.76c1.97,4.95,3.51,10.14,6.29,14.71c2.46,3.71,4.6,7.72,7.7,10.96
		c1.62,1.52,3.38,2.88,5.06,4.33c2.2,2.02,5.38,2.38,8.18,3.03c2.12-0.02,4.18-1.03,6.26-1.45c2.03-1.23,3.78-2.83,5.44-4.55
		c0.2-0.27,0.4-0.55,0.6-0.83c0.46-0.13,0.92-0.27,1.37-0.44c1.33,1.05,2.74,1.96,4.22,2.76c0.71,0.86,1.58,1.45,2.62,1.72
		c0.29,0.07,0.58,0.15,0.87,0.23c0.94,2.69,2.3,5.22,4.18,7.42c3.47,3.71,8.36,4.27,13.11,5.14c4.71,0.96,9.46,1.71,14.17,2.65
		c0.4,0.12,0.79,0.21,1.2,0.24c1.22-0.02,2.21-0.46,2.98-1.33c0.13-0.09,0.24-0.2,0.36-0.29c0.01,0,0.01,0,0.02,0
		c2.58,0.97,4.94,0.9,7.46,0.12c0.6,3.53,1.68,6.98,3.16,10.23c1.75,3.08,4.11,6.67,7.8,7.4c4.15-0.58,5.64-5.08,6.2-8.7
		c0.01-0.06,0.01-0.11,0.02-0.17c2.64,0.94,4.56-0.1,5.88-2.14c2.42,3.77,5.04,7.45,8.47,10.38c2.81,2.25,5.32,5.01,8.73,6.35
		c9.27,3.25,19.55,5.99,29.29,3.35c4.77-1.22,9.57-2.5,13.85-5.01c3.13-1.89,6.05-4.12,8.83-6.51c3.93,0.55,7.9,0.6,11.84-0.21
		c5.47-1.25,11.08-2.49,16.06-5.14c5.19-2.85,9.68-6.89,13.89-11.02c3.41-3.88,6.03-8.41,8.68-12.81c2.07-4.22,3.6-8.69,5.22-13.1
		c1.19-4.77,2.26-9.6,2.96-14.47C1242.8,509.08,1243.49,503.55,1243.26,498.02z M1144.6,368.62c0.03-0.8,0.05-1.6,0.08-2.4
		c0.84,0.16,1.68,0.31,2.52,0.46C1146.32,367.3,1145.45,367.95,1144.6,368.62z"/>
	<path class="st3" d="M1337.46,556.51c-1.07-3.54-2.81-6.73-5.22-9.58c-1.48-1.25-2.96-2.5-4.44-3.75c-0.59-0.31-1.15-0.54-1.7-0.74
		c0.89-0.66,1.72-1.47,2.45-2.45c2.87-3.64,4.9-7.71,6.1-12.2c2.67-8.6,3.25-17.67,3.21-26.63c0.09-10.6-0.47-21.18-1.01-31.76
		c-1.6-28.89-3.73-57.75-6.27-86.57c-0.42-5.73-1.22-11.41-2.28-17.05c0.92-5.06,1.81-10.12,2.59-15.21
		c1.78-18.24,3.03-36.54,3.92-54.84c0.71-14.04,1.28-28.08,1.77-42.13c0.17-6.49,0.75-13.08,0.17-19.54
		c-4.6-1.78-8.84-4.36-12.23-7.77c-3.62-0.18-7.19-0.6-10.55-1.06c-10.15-1.4-20.34-3.8-29.64-8.18c-0.12-0.06-0.22-0.12-0.32-0.18
		c-10.69-0.55-21.39-2.23-31.81-4.13l-1.29,1.99c-1,2.59-2,5.19-3,7.78c-0.65,3.06-1.29,6.12-1.94,9.18
		c-0.8,5.11-0.92,10.22-0.34,15.33c-0.02,3.3,0.42,6.53,1.31,9.7c0.29,2.36,0.89,4.63,1.76,6.82c0.06,3.45,0.15,6.9,0.28,10.35
		c0.2,6.35,0.55,12.69,1.03,19.03c0.17,8.03,0.42,16.06,0.72,24.08c0.75,9.66,0.66,19.51,2.43,29.05c0.93,5.84,1.86,11.71,3.45,17.4
		c-4.32,19.88-7.47,40-9.1,60.29c-0.8,10.69-1.38,21.52-2.13,32.23c0.1,9.92-0.02,19.86,0.63,29.77
		c1.03,14.18,1.63,28.61,2.83,42.74c2.18,15.39,3.55,30.91,6.73,46.13c0.19,0.97,0.4,1.93,0.6,2.9c-0.23,0.45-0.47,0.9-0.68,1.36
		c-2.14,5.17-4.37,10.37-5.77,15.8c-1.13,5.46-2.55,10.88-3.2,16.43c-0.33,4.31-0.65,8.63-0.88,12.95
		c-0.06,4.59,0.41,9.17,0.74,13.74c0.52,5.67,1.93,11.26,3.28,16.78c0.02,0.04,0.03,0.08,0.05,0.13c0.09,0.43,0.18,0.86,0.27,1.29
		c1.03,3.77,2.69,7.37,4.09,11.02c1.44,2.63,3.23,5.07,4.82,7.62c1.56,2.09,3.82,3.51,5.73,5.25c0.18,0.14,0.38,0.27,0.57,0.4
		c0.71,0.59,1.42,1.17,2.18,1.7c1.61,0.95,3.47,1.28,5.25,1.79c3.18,0.96,6.56,1.76,9.84,0.81c3.9-1.02,7.91-1.9,11.37-4.05
		c4.65-3,8.77-6.71,12.34-10.89c6.1,5.31,15.06,3.72,19.45-4.87c0.54-0.7,1.03-1.44,1.48-2.19c0.89-0.67,1.72-1.47,2.46-2.42
		c8.2-10.3,8.54-24.01,10.07-36.54c2.09-18.02,3.76-36.37,1.17-54.42C1340.35,564.74,1339.24,560.52,1337.46,556.51z"/>
	<path class="st3" d="M2202.8,484.8c-0.1-1.14-0.2-2.27-0.32-3.41c-0.88-8.18-1.96-16.34-2.82-24.52
		c-0.49-5.07-1.01-10.14-1.9-15.15c-0.35-0.21-0.71-0.42-1.06-0.63c-1.5,2.81-5.32,4.41-7.94,1.38c-4.25-3.96-8.51-8.05-12.14-12.6
		c-0.02-0.01-0.03-0.01-0.05-0.02c-0.64-0.25-1.2-0.6-1.68-1.01c-0.76,1.33-1.37,2.76-1.8,4.2c-1.61,3.73-2.43,7.65-2.8,11.65
		c-0.18-0.12-0.37-0.24-0.56-0.36c-3.62-2.15-7.75-3.28-11.76-4.45c-7.09-1.95-14.25-3.78-21.57-4.63
		c-7.05-0.89-14.13-1.45-21.22-1.72l2.65-2.24c2.53-2.99,4.35-6.34,5.47-10.05c0.23-0.5,0.43-1.01,0.63-1.52
		c2.31,0.79,4.83,0.73,7.34-0.71c7.95-5.1,10.6-15.13,11.98-23.97c1.07-13.5,0.99-27.07,1.11-40.61c0.09-5.24,0.16-10.48,0.21-15.71
		c0.4-11.22,0.88-22.44,1.31-33.66c0.47-16.16,2.27-32.33,0.86-48.48c-0.16-2.42-0.45-4.84-0.84-7.23
		c-8.67-0.93-17.37-2.56-23.75-8.37l-0.01-0.01c-4.33-0.96-8.58-2.2-12.68-4.03c-1,0.74-2.01,1.66-3.02,2.78
		c-1.38,2.12-2.75,4.24-4.11,6.36c-0.25,0.53-0.48,1.07-0.71,1.62c0.06-0.14,0.11-0.29,0.17-0.43c-0.06,0.16-0.13,0.32-0.19,0.48
		c-0.48,1.14-0.93,2.29-1.37,3.45c-4.11,0.07-8.23,0.47-12.33,0.56c-6.33,0.22-12.67,0.18-19,0.19
		c-12.28-0.01-24.56-0.14-36.84-0.33c-0.59-0.9-1.37-1.61-2.41-2.11c-1.16-0.85-2.09-2.14-3.53-2.51
		c-11.74-3.47-24.14-3.95-36.32-3.97c-14.78,0.17-29.57,0.57-44.32,1.44c-0.12,0.01-0.24,0.01-0.36,0.02
		c-4.31-4.03-9.78-6.51-15.5-7.9c-4.21-1.13-8.42-2.41-12.78-2.84c-5.81-0.25-11.64-0.42-17.45-0.13
		c-5.4,0.27-10.79,1.66-15.69,3.92c-2.57,1.27-4.6,3.41-6.78,5.24c-10.16,12.52-11.81,29.89-9.93,45.41
		c1.36,9.51,5.39,24.28,15.38,27.8c5.86,1.71,11.84,2.89,17.86,3.9c0.38,0.55,0.77,1.08,1.17,1.6c3.62,5.08,9.83,5.67,15.56,5.88
		c7.24,0.08,14.48-0.33,21.69-0.9c2.31-0.18,4.63-0.37,6.94-0.55c10.44,0.79,20.91,1.25,31.37,1.48c1.57,0.13,3.14,0.26,4.71,0.37
		c13.71,0.79,27.46,0.76,41.19,1c12.06,0.34,24.13,0.63,36.2,0.68c2.42,0,4.85,0.02,7.27,0.03c-1.55,13.28-2.88,26.58-4.32,39.87
		c-0.8,9.71-2.98,19.46-2.18,29.22c0.04,0.92,0.08,1.84,0.14,2.76c0,0.03,0,0.07,0.01,0.1c0.37,6.24,1.16,12.47,3.78,18.17
		c1.04,3.43,2.73,6.53,5.07,9.3c2.54,2.2,5.18,4.84,8.35,4.98c0.25,0.13,0.53,0.22,0.86,0.21c1.59,0.6,3.5-0.05,4.7-1.19
		c0.39-0.33,0.75-0.69,1.07-1.07c0.09-0.07,0.17-0.14,0.26-0.22c0.24,0.83,0.52,1.66,0.82,2.47c-6,0.43-12,1.05-17.96,1.83
		c-13.02,1.74-25.97,4.05-39,5.68c-12.27,1.28-24.59,1.97-36.93,1.68c-14.77-0.05-29.34-2.63-43.92-4.75
		c-11.66-1.7-23.38-2.98-35.14-3.75c-13.72-1.1-27.45,0.08-41.16,0.8c-6.41,0.36-12.83,0.53-19.25,0.6
		c-4.11,0.1-8.26-0.17-12.34,0.45c-3.08,0.52-6.09,1.37-9.07,2.26c-2.5,1.67-4.64,3.72-6.43,6.03c-0.13,0.04-0.27,0.07-0.4,0.11
		c-3.18,0.82-7.27,1.8-8.28,5.37c-0.63,2.49-0.68,7.27,2.37,8.08c0.02,0,0.04,0,0.05,0.01c-3.87,15.1-3.37,31.99,3.31,46.21
		c2.76,4.13,4.88,8.93,9.5,11.35c2.49,1.88,5.59,2.8,8.47,3.89c4.32,1.58,8.76,2.78,13.21,3.95c22.44,5.78,45.42,9.13,68.46,11.32
		c14.41,1.3,28.87,2.37,43.35,2.9c-1.31,3.48-2.5,7-3.55,10.56c-1.71,6.6-3.11,13.3-4.25,20.03c-0.88,6-1.07,12.08-1.52,18.13
		c-0.65,8.31-0.01,16.62,0.59,24.9c0.33,5.14,1.04,10.26,2.09,15.3c1.71,9.11,3.95,18.11,7.57,26.66c1.66,4.65,3.6,9.17,6.52,13.18
		c1.38,2.06,2.56,4.29,4.41,5.99c3.6,3.33,7.38,6.83,12.41,7.61c5.88,2.2,12.09,0.8,17.82-1.17c1.59-0.58,2.99-1.6,4.26-2.69
		c3.91-3.11,7.76-6.49,10.53-10.72c2.58-3.93,5.25-7.77,7.37-11.95c2.21-4.37,3.77-9.02,5.56-13.57
		c5.06-13.98,8.45-28.55,10.73-43.23c1.63-13.33,2.39-26.79,2.26-40.22c-0.23-9.03-0.56-18.09-1.45-27.08
		c2.75-0.65,5.5-1.31,8.24-1.99c21.87,2.82,43.87,4.99,65.95,4.36c10.78-0.3,21.48-1.8,32.14-3.44c4-0.79,7.98-1.67,11.88-2.84
		c3.92-1.06,8.13-2,10.99-5.09c2.44-1.6,4.12-3.84,5.43-6.35c0.18,0.44,0.35,0.88,0.54,1.31c0.94,2.37,2.42,4.27,4.43,5.7
		c0.89,1.15,2.04,1.77,3.48,1.88c1.83,0.82,3.66,0.66,5.49-0.49c5.13-3.69,7.98-9.81,8.93-15.95
		C2204.42,499.71,2203.89,492.14,2202.8,484.8z"/>
	<g class="st4">
		<path class="st5" d="M1660.75,495.65c-4.07-0.37-8.04-1.64-11.75-3.45c0.19-0.35,0.37-0.71,0.54-1.09
			c1.18-1.79,2.13-3.73,2.88-5.74c2.5-5.98,4.27-11.89,5.65-18.05c1.85-4.67,3.79-9.33,4.84-14.26c0.9-4.36,1.98-8.69,2.6-13.1
			c0.69-5.51,1.05-11.09,1.21-16.65c-0.18-7.79-1.2-15.51-3.3-23.01c-1.22-3.03-2.26-6.13-3.59-9.11c-1.39-2.23-2.86-4.42-4.27-6.64
			c-0.87-1.13-2.12-1.91-3.16-2.87c-0.81-0.98-1.77-1.72-2.88-2.24c-2.83-0.7-5.73-1.92-8.64-1.55c-1.03-0.86-2.08-1.69-3.13-2.51
			c-2.03-1.29-4.56-1.64-6.87-2.19c-1.82,0.32-3.62,0.89-5.39,1.41c-1.95,1.11-3.51,2.8-5.26,4.2c0.58-1.44,1.12-2.9,1.62-4.36
			c-0.25,0.66-0.51,1.31-0.76,1.97c0.25-0.67,0.51-1.34,0.77-2.01c0.47-1.39,0.92-2.79,1.32-4.19c0.81-0.7,1.61-1.4,2.43-2.09
			c0.55-0.48,1.05-1.02,1.43-1.65c2.22-3.29,4.57-6.57,6-10.3c1.18-3.14,2.49-6.24,3.58-9.42c0.83-3.33,1.43-6.72,2.18-10.08
			c0.83-5.11,0.9-10.34,1.21-15.51c0.07-6.63-0.56-13.25-1.08-19.86c-0.48-4.57-1.72-9.02-2.59-13.53
			c-1.32-5.11-3.48-9.99-5.48-14.85c-1.87-3.89-4.39-7.42-6.74-11.02c-1.08-1.53-2.4-2.87-3.78-4.14c-0.29-0.57-0.61-1.12-0.96-1.65
			c-1.66-2.43-3.08-5.04-4.9-7.35c-2.17-2.22-4.59-4.32-7.28-5.89c-1.92-0.74-3.9-1.3-5.94-1.67c-1.2-0.26-2.4-0.17-3.59,0.08
			c-7.57-4.48-15.52-8.32-23.71-11.56c-3.55,0.57-7.23,0.22-11.1-0.56c-2.63-0.53-3.61-2.52-3.39-4.51c-1.62-0.5-3.24-1-4.86-1.48
			c-10.02,1.67-20.12,2.88-30.24,3.63c-1.89,0.19-3.78,0.31-5.67,0.38c-0.61,0.02-1.17-0.05-1.66-0.19c-0.7,0.15-1.39,0.3-2.08,0.44
			c-7.14,1.46-14.47,2.5-21.82,3.06c-7.38,2.66-14.5,5.8-21.15,9.06c-11.21,5.49-23.82,12.48-34.13,21.47
			c-0.12,1.97-0.75,4.12-1.94,6.36c-3.9,7.29-10.49,13.75-16.77,19.03c-1.55,1.3-3.83,1.38-5.55,0.57
			c-1.35,6.45-2.42,12.95-2.6,19.57c-0.74,6.53-0.19,13.07,0.3,19.6c0.16,2.66,0.58,5.29,1.05,7.9c1.17,5.12,1.88,10.37,3.5,15.38
			c1.01,2.62,2.02,5.24,3.04,7.86c1.31,2.22,2.82,4.33,4.19,6.51c1.38,1.66,2.98,2.99,4.8,4.01c1.85,0.58,3.76,1.11,5.66,1.51
			c1.72-0.46,3.44-0.93,5.16-1.39c0.32-0.27,0.65-0.54,0.97-0.8c0.87,2.24,1.81,4.46,2.8,6.64c1.28,2.21,2.62,4.4,4.01,6.55
			c-1.18,0.42-2.35,0.87-3.51,1.33c-5.73,2.56-10.6,6.58-15.3,10.66c-0.32,0.27-0.61,0.56-0.87,0.89c-1.54,2.54-3.41,4.9-4.72,7.57
			c-0.02,0.06-0.05,0.13-0.07,0.19c-1.88-4.32-5.66-8.95-10.38-6.73c-1.4,0.39-2.29,1.5-3.27,2.55c-2.28,3.11-3.8,6.69-4.67,10.44
			c-3.04,12.6-2.69,25.91-0.56,38.62c4.45,24.64,14.91,26.73,21.07,15.84c1.28,2.05,2.49,4.17,4.14,5.93
			c3.66,3.11,7.18,6.58,11.68,8.46c5.39,2.14,11.05,3.68,16.8,4.55c1.52,2.5,3.13,4.94,4.95,7.22c4.86,5.01,10.49,9.71,17.4,11.43
			c6.24,1.9,12.69,3.19,19.24,2.93c1.47-0.05,2.94-0.16,4.4-0.3c1.63,5.88,4.28,11.43,8.13,16.22c1.06,1.54,2.31,2.7,3.76,3.48
			c0.4,0.94,0.82,1.88,1.29,2.8c3.55,5.62,6.27,10.95,13.76,11.4c3.92-0.71,7.96-1.45,11.6-3.1c3.3-1.68,6.13-4.11,8.98-6.44
			c13.49-10.9,24.64-24.3,36.73-36.67c6.42-6.31,12.61-12.85,19.26-18.92c0.61-0.56,1.24-1.09,1.86-1.63
			c0.97,2.03,2.15,3.95,3.77,5.62c1.63,2.08,3.85,3.74,6.22,4.99c0.82,0.31,1.64,0.56,2.47,0.79c1.34,1.95,2.83,3.77,4.81,5.16
			c0.25,2.45,0.87,4.74,1.74,6.45c4.67,8.96,15.67,11.85,25.1,10.75c7.3-0.4,14.03-3.62,18.32-9.64
			C1667.6,494.89,1664.26,496.07,1660.75,495.65z M1541.19,318c-0.87,0.83-1.76,1.66-2.65,2.47c-5.47,4.35-11.72,7.71-18.35,9.91
			c-0.4,0.13-0.8,0.23-1.2,0.36c-3.44,0.77-6.94,1.29-10.44,1.66c-2.49-1.06-4.87-2.18-7.11-3.34c9.47-6.26,19.34-11.99,29.78-16.45
			c3.19,0.06,6.36,0.32,9.48,0.93c1.24,0.41,2.47,0.85,3.68,1.34C1543.32,315.92,1542.25,316.96,1541.19,318z"/>
		<path class="st5" d="M1622.28,373.26c-0.15,0.38-0.3,0.77-0.44,1.15c0,0.01-0.01,0.03-0.01,0.04
			C1621.98,374.05,1622.13,373.65,1622.28,373.26z"/>
	</g>
	<path class="st6" d="M1756.34,601.55c0.02-3.32-0.42-6.58-1.32-9.78c-0.94-6.93-4.01-13.4-8.29-18.9c-2.05-1.57-3.8-3.65-6.17-4.73
		c-4.02-1.54-8.23-2.75-12.52-3.19c-2.12-0.16-4.23-0.06-6.33,0.23c6.31-7.78,8.34-17.87,9.61-27.59c0.75,0.3,1.7,0.32,2.42,0.04
		c1.19-0.11,1.95-1.18,2.84-1.86c0.32-0.38,0.62-0.78,0.91-1.21c0.75,0.41,1.58,0.7,2.49,0.85c6.4-0.62,8.3-9.31,9.33-14.54
		c0.69-8.16,0.95-16.36,0.63-24.54c-0.53-10.31-1.06-20.71-3.02-30.86c-0.1-1.31-0.56-2.51-0.94-3.75
		c-0.52-2.24-1.23-4.41-2.67-6.25c-2.45-4.29-5.76-4.82-8.54-3.23c0.14-7.7,0.33-15.4,0.66-23.09c2.35-52.62,2.96-53.1,6.45-99.45
		c1.33-19.6,3.94-39.19,3.57-58.85c-0.25-4.26-0.52-8.52-0.87-12.77c0.05,0.67,0.09,1.35,0.14,2.02c-0.11-1.53-0.21-3.07-0.34-4.6
		c-0.6-4.18-1.56-8.31-2.51-12.43c-1.79-5.9-4.39-11.48-8.25-16.34c-5.04-6.71-14.11-6.79-19.2,0c-0.47,0.38-0.86,0.84-1.21,1.33
		c-2.06-0.91-4.3-1.28-6.75-0.88c-2.53-4.32-5.05-8.83-9.04-11.93c-1.71-2.31-4.82-2.62-7.4-3.17c-1.76,0.41-3.7,0.78-5.3,1.59
		c-3.21,2.5-6.3,5.32-7.78,9.19c-0.08,0.18-0.15,0.36-0.22,0.54c-1.12-0.24-2.24-0.41-3.39-0.3l-3.86,1.04
		c-2.18,1.26-3.83,3-4.94,5.2c-1.23,1.56-2.09,3.29-2.61,5.21c-1.39,3.14-2.26,6.43-2.6,9.88c-0.68,8.44-0.89,17.44,2.6,25.33
		c0.84,2.91,2.4,5.45,4.31,7.82c0.77,0.81,1.61,1.55,2.48,2.28c-0.18,1.9-0.35,3.79-0.51,5.69c-0.01,0.13-0.02,0.26-0.03,0.4
		c-7.97,11.47-9.4,26.79-8.52,40.79c0.2,8.96,0.38,17.92,0.83,26.87c0.88,10.84,1,21.77,2.78,32.52c0.2,1,0.4,2,0.6,2.99
		c-0.12,2.31-0.24,4.62-0.35,6.93c-0.55,6.36-1.26,12.7-2.23,19c-3.45,0.15-6.86,1.85-9.33,5.15c-3.35,4.06-5.43,8.71-6.84,13.62
		c-2.3-1-4.76-1.65-7.18-2.29c-3.01-0.87-6.13-1.65-9.28-1.22c-4.62,0.92-9.39,2.16-13.13,5.18c-3.96,3.26-8.13,6.45-10.9,10.85
		c-0.01,0.02-0.03,0.04-0.04,0.06c-1.85,1.43-3.69,2.91-5.08,4.77c-1.46,2.38-3.16,4.62-4.47,7.09c-1.31,3.2-2.65,6.4-3.66,9.7
		c-2,6.62-2.37,13.49-2.76,20.34c-0.12,3.72,0.1,7.44,0.67,11.15c0.62,4.52,1.59,9.06,2.86,13.45c0.08,0.19,0.16,0.39,0.24,0.58
		c0.59,2.99,1.11,6,2.09,8.87c0.66,1.57,1.23,3.18,1.82,4.79c1.21-2.12,3.85-3.59,6.26-2.92c10.88,3.04,21.21,9.64,28.39,18.38
		c1.36,1.66,1.67,3.61,1.06,5.26c1.67-0.53,3.31-1.15,4.88-1.87c1.75-0.99,3.3-2.26,4.83-3.57c1.09,0.3,2.18,0.57,3.27,0.83
		c2.98,0.97,5.88-0.35,8.76-1.09c3.32-1.76,5.9-4.7,7.84-7.93c1.34,4,2.69,8,3.9,12.04c0.6,2.52,1.4,4.98,2.47,7.35
		c1.12,3.69,2.94,7.03,5.45,10.01c1.82,2.66,4.23,4.2,7.23,4.61c0.24,0.11,0.49,0.19,0.73,0.28c-15-0.59-29.99-1.16-45.01-1.11
		c-11.99-0.07-24,0.04-35.96,1.08c-4.48,0.43-9.05,0.45-13.43,1.57c-2.4,0.03-4.45,0.74-6.15,2.11c-1.54-0.32-3.08-0.66-4.62-1.03
		c-1.41-0.34-2.83-0.68-4.24-1.02c-5.63-1.59-11.31-3.07-16.73-5.27c-0.09-0.04-0.18-0.08-0.27-0.12c-0.4-3.24-1.04-6.46-1.9-9.6
		c-2.25-6.82-5.04-13.46-7.79-20.09c-1.95-4.63-4-9.21-6.1-13.77c-1.51-4.29-4.05-10.16-8.66-9.67c-0.97,0.13-1.9,0.44-2.74,0.91
		c-0.22-0.68-0.43-1.36-0.66-2.04c-1.58-5.02-3.53-9.95-6.53-14.29c0.1-5.34,0.3-10.7,0.15-16.04c1.08-1.92,2.22-3.81,3.28-5.74
		c-1.11,1.12-2.25,2.21-3.37,3.32c-0.26-5.47-0.95-10.89-2.54-16.2c-1.37-5.13-3.69-9.78-6.97-13.94c-7.13-8.83-17.26-5.7-22.1,3.71
		c-5.91,8.65-7.24,19.36-9.46,29.37c-1.02,4.94-1.83,9.93-2.47,14.93c-2.53,4.06-3.98,8.69-5.57,13.19
		c-2.75,9.69-4.89,19.62-5.25,29.72c-1.04,16.21-1.7,32.51-0.38,48.71c0.75,3.31,1,6.8,2.1,10c1,2.67,2.02,5.33,3.08,7.98
		c1.36,2.03,2.59,4.15,4.01,6.12c1.55,1.46,3.18,2.95,4.94,4.15c1.63,1.13,3.38,1.79,5.14,1.8c0.85,3.19,1.94,6.3,3.41,9.26
		c0.9,2.28,2.18,4.23,3.81,5.86c0.3,1.34,0.62,2.67,0.98,4c0.47,1.52,1,3.02,1.56,4.52c10.32,5.97,20.36,12.47,30.7,18.41
		c3.19,0.91,6.31,2.18,9.36,3.53c0.32-0.3,0.64-0.6,0.94-0.92c1.04,0.45,2.1,0.86,3.17,1.26c5.59,1.86,11.35,3.23,17.11,4.43
		c12.92,2.14,26.11,2.09,39.16,2.71c23.78,0.56,47.54,1.58,71.32,1.9c11.33,0.11,22.65,0.16,33.98,0.04
		c8.15-0.38,16.59-0.33,24.31-3.25c1.55-1.31,3.1-2.62,4.65-3.93c2.52-2.99,4.34-6.33,5.47-10.03c1.3-2.73,2.13-5.59,2.51-8.6
		c0.07-0.25,0.13-0.51,0.2-0.77c1.55-0.34,3.09-0.77,4.59-1.32C1754.58,636.93,1757.76,614.66,1756.34,601.55z M1705.92,569.4
		c-6.7-0.18-13.4-0.43-20.1-0.69c0.86-0.23,1.72-0.6,2.59-1.14c1.55-1.31,3.09-2.61,4.64-3.92c1.63-2.07,3.03-4.27,4.19-6.58
		c2.02,4.83,4.93,9.27,9.51,12.05C1706.46,569.21,1706.19,569.31,1705.92,569.4z"/>
</g>
<g id="레이어_3" class="st0">
	<g class="st7">
		<path d="M278.6,667.6c-13,0-20.5-6-22-17.5h-0.5c-15,0-23-8.5-22-23l3.5-52.5c-10.5-2.5-18-9-23-17.5c-16.5-4.5-27-18.5-27-37.5
			v-41c0-14.5,8-22.5,22.5-22.5h35v-5c-14-1.5-24.5-8.5-30.5-19c-16.5-4.5-27-18.5-27-37.5v-41c0-14.5,8-22.5,22.5-22.5h43l3.5-61
			c1-14.5,9-22,23-22h47.5c14.5,0,25.5,7,31.5,18.5c10,2,17.5,8.5,22,17l1-13.5c1-14.5,9-22,23-22h47.5c14.5,0,25.5,7,31.5,18.5
			c17,4,27.5,19,26.5,38.5l-1.5,27c10.5,2.5,19,9,24,18c16.5,4.5,27,18.5,27,37.5v41c0,14.5-8,22.5-22.5,22.5h-35.5v5
			c14,1,25,8,31,19c16.5,4.5,27,18.5,27,37.5v41c0,14.5-8,22.5-22.5,22.5h-42.5l-2.5,47c-1.5,31-16.5,44.5-48,44.5h-40.5
			c-13,0-20.5-6-22-17.5h-0.5c-8.5,0-14-2.5-18-7c-6.5,17-20.5,24.5-44,24.5H278.6z M256.6,627.6h40c19.5,0,24.5-4.5,25.5-23.5l4-68
			h61.5l-6,91.5h40c19.5,0,24.5-4.5,25.5-23.5l4-68h63.5v-41c0-11-5.5-16.5-17-16.5h-43.5l4-67.5h56.5v-41c0-11-5.5-16.5-17-16.5
			h-36.5l4-67c0.5-10-4-16-13-16h-48l-5,83h-63l4-67c0.5-10-4-16-13-16h-48l-5,83h-64v41c0,11,5.5,16.5,17,16.5h43l-4,67.5h-56v41
			c0,11,5.5,16.5,17,16.5h35.5L256.6,627.6z M329.1,478.6l4-67.5h62l-4,67.5H329.1z"/>
		<path d="M809.6,671.1h-1.5c-14.5-1.5-21.5-10-21.5-24v-66c-56,6.5-123.5,9-186,6.5c-16-0.5-28-7.5-34.5-19.5
			c-17-5-27.5-18.5-27.5-38v-22.5c0-11.5,3.5-20,12-27.5c8-8,13-11.5,16-11.5l4,0.5v-116c-16.5-4.5-27-18.5-27-38v-38.5
			c0-14.5,8-22.5,22.5-22.5h192c11.5,0,21.5,3.5,28.5,10v-30c0-14.5,8-22.5,22.5-22.5h47c16,0,28.5,7,35,19
			c16.5,4.5,27,18.5,27,37.5v96.5c13,3,23,9,30,20c9.5,3,17,9,22.5,17.5c13,19.5,11.5,53-2,76c-5.5,10.5-14.5,13.5-26.5,13.5h-24
			v111.5c0,16,0.5,30-2.5,43.5c-7.5,35-38.5,46.5-85,42C818.6,687.6,811.6,681.1,809.6,671.1z M791.6,537.1v-38c0-11.5-7-17.5-20-16
			c-9,1.5-18.5,2.5-29,3.5l6-120.5c0.5-11.5-5.5-17.5-18-17.5h-39l-6.5,142c-11.5,0.5-23,1-35,1V364.1c0-11-5.5-16.5-18-16.5h-39
			v144c-10.5,0-21.5,0-32-0.5v39c0,11,5.5,17,18,17.5C643.1,550.1,725.1,547.6,791.6,537.1z M776.1,332.6v-38.5
			c0-11.5-6-17.5-18-17.5h-192v38.5c0,11.5,6,17.5,18,17.5H776.1z M809.1,648.6c39,4,57.5-3.5,62-24.5c3-13.5,2-29,2-51.5v-121h52.5
			c9.5-15,11.5-36,6.5-49.5c-6-15-19.5-20.5-59-13.5v-138c0-11-5.5-16.5-17-16.5h-47V648.6z"/>
		<path d="M1256.09,671.1h-1.5c-14.5-1.5-21.5-10-21.5-24v-55.5c-35,7-79,9-115,4.5c-40-5.5-68.5-17.5-87-37.5
			c-29-16.5-44.5-42.5-49-80.5c-5-47.5-1-129.5,10-199.5c2-13.5,10.5-20.5,24-20.5h172.5c16,0,28.5,7,34.5,19c3.5,1,7,2.5,10,4v-47
			c0-14.5,8-22.5,22.5-22.5h47c16,0,28.5,7,35,19c16.5,4.5,27,18.5,27,37.5v335c0,16,0.5,30-2.5,43.5c-7.5,35-38.5,46.5-85,42
			C1265.09,687.6,1258.09,681.1,1256.09,671.1z M1217.09,549.6v-33.5c0-11.5-6.5-17-18.5-15.5c-24,2.5-54.5,4-80,1.5
			c-34.5-3.5-52-19-54.5-49.5c0-3.5-0.5-8-0.5-13h132.5v-37c0-10.5-5.5-15.5-16-15.5h-116c0.5-19,1.5-38,3.5-52.5h137v-40
			c0-9.5-5.5-14-16-14h-174c-11.5,73.5-14.5,152.5-10,195c5.5,49,32,72,94,80.5C1139.09,561.1,1185.09,557.6,1217.09,549.6z
			 M1255.59,648.6c39,4,57.5-3.5,62-24.5c3-13.5,2-29,2-51.5v-322c0-11-5.5-16.5-17-16.5h-47V648.6z"/>
		<path d="M1498.08,646.6c-21.5-11.5-35-29-40-52.5c-4-18-4.5-44.5-1-70.5c1-8.5,5-14.5,11-17.5v-9l-17.5-0.5c-17.5,0-30-7-37-19.5
			c-17.5-5-28-19.5-28-41v-30c0-15,8-22.5,23-22l24.5,0.5c-17-15.5-26-37-26-63.5c0-61.5,49-101,123.5-101c42.5,0,76.5,13,98,35.5
			c7,4,13.5,9,19.5,14.5v-36c0-14.5,8-22.5,22.5-22.5h47c16,0,28.5,7,35,19c16.5,4.5,27,18.5,27,37.5v237.5c0,16,0.5,30-2.5,43.5
			c-2.5,12-8,21.5-16.5,28.5c15,5.5,24.5,19.5,24.5,38.5v32c0,13.5-6,22-19.5,25c-54,11-137.5,12.5-201.5,4.5
			C1535.08,673.6,1512.58,663.1,1498.08,646.6z M1490.58,510.1c40,4,62-2.5,66-22c1-7,1-17.5,1-25v-7.5c32.5-2,65-4.5,92-8v-31
			c0-12-8.5-17-20.5-16c-48,4.5-139.5,9-221,6v29.5c0,14,6,20.5,20.5,20.5c18.5,0.5,39.5,1,62,1V510.1z M1631.08,321.1
			c0-46-35.5-78.5-100.5-78.5c-65.5,0-101,32.5-101,78.5s34.5,71,101,71C1596.58,392.1,1631.08,367.1,1631.08,321.1z M1740.08,633.1
			v-34.5c0-14-8-20-21.5-18c-40,5.5-111.5,9.5-149.5,3c-18.5-3-28-11-30-20c-1-4.5-1-11.5-1-19.5c0-13-5.5-18.5-16.5-18.5h-42
			c-3,21.5-3.5,46,0.5,63.5c5.5,25.5,24.5,43,64.5,48.5C1605.58,645.6,1687.08,644.1,1740.08,633.1z M1488.58,316.1
			c0-17.5,15.5-28,42-28c26,0,42,10.5,42,28c0,18-16,26.5-42,26.5C1504.08,342.6,1488.58,334.1,1488.58,316.1z M1658.08,562.1
			c-1.5-1.5-3-3-4-4.5c-23-1.5-38.5-7.5-47.5-22c-5-2-9.5-4-13-7c-4,5-8.5,9.5-14.5,12.5c2.5,6,4,13,4,20.5v1c19.5,2,47.5,2.5,76,1
			L1658.08,562.1z M1670.58,551.1c39,4.5,57.5-3.5,62-24.5c3-13.5,2-29,2-51.5V250.6c0-11-5.5-16.5-17-16.5h-47v231h-66.5
			c-5.5,13.5-5.5,31-1.5,39.5c5,10,17.5,16,68,11.5V551.1z"/>
		<path d="M1968.58,665.6h-1.5c-14.5-1.5-21.5-10-21.5-24v-98h-89c-16,0-28.5-7-35-19c-16.5-4.5-27-18.5-27-37.5v-37.5
			c0-14.5,8-22.5,22.5-22.5h230.5v-76.5h-133.5c-15.5,0-27.5-7-33.5-19c-16-4-26.5-17-26.5-35.5v-40.5c0-14.5,8-22.5,22.5-22.5h240
			c15,0.5,26.5,7.5,32,19c16.5,4,26.5,17,26.5,35.5v28.5c0,13,0.5,91.5-2.5,107.5l-0.5,3.5c15,0.5,27,7.5,33,19
			c16.5,4.5,27,18.5,27,37.5v37.5c0,14.5-8,22.5-22.5,22.5h-129v58.5c0,13,0,27.5-2,38.5v1c-7.5,34.5-41,46-89,41.5
			C1977.58,682.1,1970.58,675.6,1968.58,665.6z M1968.08,643.1c40,4,61.5-3.5,66-24c2-11,1.5-26.5,1.5-42v-73.5h151.5v-37.5
			c0-11-5.5-16.5-17-16.5h-353v37.5c0,11,5.5,16.5,17,16.5h134V643.1z M2070.08,424.6c37,4,54.5-2.5,58-22.5c2.5-14,2-90.5,2-103.5
			v-28.5c0-9.5-4.5-14-14-14.5h-239.5v40.5c0,10,5,14.5,15,14.5h178.5V424.6z"/>
		<path d="M2638.57,434.1c-5.5,10.5-14.5,13.5-26.5,13.5h-1.5c-14,0-22-2-22.5-5c0,12,0,23.5-2.5,34.5c-2.5,10-6.5,18.5-12.5,25
			c7,6.5,11,16,11,27.5v101c0,11.5-3.5,20-13,27c-37,26-94,39-156,36c-45.5-2.5-79.5-15-100-37c-22-12.5-36-30.5-42.5-53.5
			c-6.5-26-5.5-71.5,3-110c1-3,2-5.5,3-7.5c-3.5-3-7-6-10-9.5c-28.5-15.5-44-42-44-76.5c0-20,5.5-37.5,15.5-52c-2.5-2.5-5-5.5-7-9
			c-16.5-4.5-27-18.5-27-37.5v-31.5c0-14.5,8-22.5,22.5-22.5h57.5l-0.5-2c-3-11.5-2-21.5,7.5-29c17.5-14,44.5-19,66-12.5
			c11.5,4,20,10.5,25.5,18.5c13,5.5,22,14,26.5,25h20c10.5,0,20,3,26.5,8.5v-21.5c0-14.5,8-22.5,22.5-22.5h46c16,0,28.5,7,35,19
			c16.5,4.5,27,18.5,27,37.5v52.5c13,3,23,9,30,20c9.5,3,17,9,22.5,17.5C2653.57,377.6,2652.07,411.1,2638.57,434.1z M2228.57,301.1
			c0,11,5.5,16.5,17,16.5h202.5v-31.5c0-11-5.5-16.5-17-16.5h-65.5c9-21,5-38.5-13.5-44.5c-14.5-4.5-34-0.5-46,9.5
			c2.5,10.5,5.5,23,8,35h-85.5V301.1z M2338.57,469.1c61,0,91.5-27,91.5-69.5s-33-73-91.5-73s-91.5,30.5-91.5,73
			S2277.57,469.1,2338.57,469.1z M2539.07,512.1c0-10.5-5.5-15.5-16-15.5h-225c-7,30.5-10.5,74-3.5,101c9,34,43.5,53,99,56
			c59,3,112.5-9.5,145.5-34.5V512.1z M2338.57,422.1c-22,0-34-9-34-25c0-16.5,13.5-26.5,34-26.5s34,10,34,26.5
			C2372.57,413.1,2360.57,422.1,2338.57,422.1z M2350.57,547.1h128v41c-19.5,11-64.5,14.5-94,9.5
			C2356.57,592.1,2347.57,578.6,2350.57,547.1z M2595.57,407.6c9.5-15,11.5-36,6.5-49.5c-6-15-19.5-20.5-59-13.5v-94
			c0-11-5.5-16.5-17-16.5h-46v245c38.5,4,56.5-3.5,61-24.5c3-12.5,2-27,2-47H2595.57z"/>
	</g>
</g>
<g id="레이어_6">
	<g>
		<g>
			<path class="st8" d="M307.86,328.58c-34.15,37.42-57.75,83.88-67.36,133.65c-1.48,7.64,6.68,12.05,12.54,7.3
				c46.62-37.85,79.58-92.5,91.07-151.47c3.58-18.36,6-37.88-0.29-55.94c-1.03-2.97-3.83-5.73-7.23-5.51
				c-13.38,0.88-22.97,9.43-31.66,18.87c-8.95,9.71-17.44,19.83-25.53,30.27c-16.22,20.94-30.73,43.15-43.22,66.51
				c-6.49,12.15-12.43,24.6-17.82,37.28c-4.53,10.67-13.15,25.84-2.56,35.73c8.88,8.29,23.43,3.52,33.54,0.64
				c12.68-3.61,24.99-8.62,36.78-14.52c23.95-11.98,45.97-27.91,66.27-45.29c18.93-16.21,36.5-34.92,48.23-57.09
				c5.14-9.71,11.55-22.02,8.41-33.38c-3.81-13.77-18.6-14.14-29.03-7.78c-22.38,13.64-39.88,34.98-55.54,55.57
				c-19.1,25.11-36.41,51.6-51.84,79.12c-7.88,14.06-15.27,28.4-22.14,42.98c-6.26,13.28-15.05,28.55-7.39,43.07
				c1.83,3.47,6.97,4.82,10.26,2.69c25.29-16.33,47.6-36.79,65.98-60.63c8.95-11.6,16.95-23.9,23.79-36.85
				c7.1-13.45,13.76-29.25,5.69-43.79c-1.85-3.33-6.99-4.99-10.26-2.69c-41.6,29.32-72.2,72.56-85.53,121.73
				c-1.35,4.97,3.73,11.53,9.23,9.23c41.68-17.47,73.51-54.92,82.57-99.44c1.92-9.42-12.54-13.45-14.46-3.99
				c-7.93,38.97-35.2,73.5-72.1,88.96c3.08,3.08,6.15,6.15,9.23,9.23c12.26-45.25,40.27-85.73,78.64-112.77
				c-3.42-0.9-6.84-1.79-10.26-2.69c6.06,10.92-3.9,25.7-9.2,35.07c-6.49,11.46-13.85,22.49-22.13,32.74
				c-16.67,20.63-36.46,38.55-58.74,52.94c3.42,0.9,6.84,1.79,10.26,2.69c-2.38-4.52-0.45-9.94,1.26-14.38
				c2.22-5.74,5.04-11.3,7.69-16.85c5.24-10.98,10.78-21.81,16.6-32.5c11.79-21.63,24.74-42.63,38.79-62.86
				c13.24-19.07,27.17-38.03,43.73-54.39c7.51-7.42,16.49-16.58,26.32-20.84c1.02-0.44,2.16-0.9,3.29-0.73
				c0.31,0.05,1.17,0.88,0.26-0.04c0.91,0.93,0.81,2.69,0.79,3.86c-0.09,4.13-1.91,8.18-3.56,11.88
				c-8.97,20.04-23.17,37.07-39.06,52.02c-16.51,15.53-34.76,29.5-54.08,41.36c-19.43,11.92-40.34,21.5-62.68,26.41
				c-2.12,0.47-8.26,1.84-9.41,0.4c-2.12-2.65,3.01-11.63,4.1-14.28c4.33-10.55,9.14-20.91,14.29-31.09
				c11.79-23.31,25.56-45.61,41.1-66.61c7.65-10.33,15.78-20.3,24.3-29.91c6.83-7.7,15.56-20.12,26.83-20.86
				c-2.41-1.84-4.82-3.67-7.23-5.51c5.15,14.8,3.53,30.51,0.73,45.63c-2.59,14-6.41,27.78-11.35,41.13
				c-9.69,26.17-24.03,50.89-41.95,72.28c-10.34,12.34-21.86,23.63-34.36,33.78c4.18,2.43,8.36,4.86,12.54,7.3
				c9.13-47.27,31.03-91.45,63.51-127.04C324.96,332.07,314.38,321.43,307.86,328.58L307.86,328.58z"/>
		</g>
	</g>
	<g>
		<g>
			<path class="st8" d="M227.74,192.04c-12.39,9.57-24.5,18.51-34.5,30.58c-9.82,11.85-19.36,24.1-26.36,37.86
				c-5.32,10.45-9.22,22.21-9.22,34.07c0.8,5.98,1.61,11.96,2.41,17.94c2.09,8.78,6.12,16.44,12.08,22.95
				c3,5.07,7.04,9.11,12.11,12.11c4.21,4.18,9.18,7.08,14.89,8.68c5.26,3.05,10.94,4.59,17.03,4.61c8.97,2.01,17.94,1.61,26.92-1.21
				c9.35-2.13,18.56-6.34,26.99-10.69c2.15-1.11,4.18-2.4,6.14-3.81c5.99-4.3,12.13-8.78,17.57-13.78
				c6.99-6.43,12.9-14.59,18.02-22.48c1.19-1.82,2.2-3.73,3.14-5.69c3.3-6.93,6.51-14.2,8.84-21.54c2.81-8.97,3.21-17.94,1.21-26.92
				c-0.41-8.98-3.08-17.35-8.01-25.1c-8.19-14-24.25-27.36-40.34-31.02c-17.28-3.94-36.67-3.08-52.01,6.8
				c-15.12,9.75-25.51,23.02-31.02,40.34c-0.44,1.39-0.92,2.73-1.46,4.09c2.27-5.37,4.54-10.75,6.8-16.12
				c-1.56,3.57-3.47,6.85-5.8,9.97c3.52-4.55,7.04-9.11,10.55-13.66c-2.43,3.05-5.11,5.76-8.14,8.21
				c4.55-3.52,9.11-7.04,13.66-10.55c-3.1,2.36-6.36,4.32-9.91,5.93c5.37-2.27,10.75-4.54,16.12-6.8c-2.69,1.12-5.41,1.99-8.25,2.64
				c25.41,33.05,50.82,66.1,76.23,99.16c3.77-7.4,8.16-14.37,13.21-20.97c-3.52,4.55-7.04,9.11-10.55,13.66
				c6.5-8.28,13.87-15.7,22.12-22.24c-4.55,3.52-9.11,7.04-13.66,10.55c0.44-0.34,0.87-0.67,1.31-1.01
				c7.87-4.24,14.18-10.04,18.94-17.39c5.97-6.52,9.99-14.17,12.08-22.95c2.81-8.97,3.21-17.94,1.21-26.92
				c-0.41-8.98-3.08-17.35-8.01-25.1c-9.29-14.41-23.13-27.1-40.34-31.02c-5.98-0.8-11.96-1.61-17.94-2.41
				C249.63,182.86,238.27,185.93,227.74,192.04L227.74,192.04z"/>
		</g>
	</g>
	<g>
		<g>
			<path class="st8" d="M242.6,298.31c45.39,6,91.13,8.89,136.91,8.65c-21.7-16.52-43.39-33.04-65.09-49.56
				c0.57,1.71,1,3.33,1.35,5.1c-0.8-5.98-1.61-11.96-2.41-17.94c0.39,2.98,0.41,5.79,0.04,8.76c-0.35,9.29,1.59,17.96,5.81,26.01
				c2.72,8.37,7.37,15.61,13.96,21.72c4.55,3.52,9.11,7.04,13.66,10.55c7.75,4.93,16.11,7.6,25.1,8.01c5.98,1.61,11.96,1.61,17.94,0
				c8.98-0.41,17.35-3.08,25.1-8.01c13.85-8.93,28.28-23.35,31.02-40.34c1.37-8.46,2.73-16.92,4.1-25.38
				c2.81-8.97,3.21-17.94,1.21-26.92c-0.41-8.98-3.08-17.35-8.01-25.1c-8.19-14-24.25-27.36-40.34-31.02
				c-17.28-3.94-36.67-3.08-52.01,6.8c-14.83,9.56-26.18,23.04-31.02,40.34c-9.14,32.69-14.36,66.78-16.51,100.62
				c-2.18,34.25,0.94,67.85,5.9,101.74c2.09,8.78,6.12,16.44,12.08,22.95c4.76,7.35,11.07,13.14,18.94,17.39
				c5.37,2.27,10.75,4.54,16.12,6.8c8.97,2.81,17.94,3.21,26.92,1.21c6.09-0.02,11.77-1.55,17.03-4.61
				c8.37-2.72,15.61-7.37,21.72-13.96c3.52-4.55,7.04-9.11,10.55-13.66c6.11-10.53,9.18-21.88,9.22-34.07
				c2.98-28.93,5.96-57.86,8.94-86.79c-45,0-90,0-135,0c-6.03,76.73-7.86,153.75-5.46,230.68c0.53,16.87,6.98,35.99,19.77,47.73
				c12.89,11.84,29.72,20.51,47.73,19.77c15.36-0.63,27.7-3.52,41.06-11.32c10.99-6.42,23.35-18.28,28.93-29.79
				c6.11-10.53,9.18-21.88,9.22-34.07c-0.04-12.18-3.11-23.54-9.22-34.07c-12.24-20.92-34.32-32.85-58.28-33.43
				c-47.65-1.16-95.28-3.34-142.84-6.52c21.7,28.48,43.39,56.96,65.09,85.44c9.7-41.44,9.92-83.57,7.35-125.76
				c-2.24-36.79-5.42-73.79-0.65-110.52c-0.8,5.98-1.61,11.96-2.41,17.94c0.5-3.64,1.07-7.27,1.71-10.89
				c2.81-8.97,3.21-17.94,1.21-26.92c-0.41-8.98-3.08-17.35-8.01-25.1c-8.19-14-24.25-27.36-40.34-31.02
				c-17.28-3.94-36.67-3.08-52.01,6.8c-13.99,9.02-27.99,23.29-31.02,40.34c-4.06,22.83-6.57,45.93-6.65,69.12
				c-0.07,17.26,0.92,34.51,2,51.73c2.2,34.86,4.83,69.93,0.23,104.72c0.8-5.98,1.61-11.96,2.41-17.94c-1.02,7.26-2.33,14.46-4,21.6
				c-3.21,11.96-3.21,23.93,0,35.89c2.09,8.78,6.12,16.44,12.08,22.95c4.76,7.35,11.07,13.14,18.94,17.39
				c10.53,6.11,21.88,9.18,34.07,9.22c47.56,3.18,95.18,5.35,142.84,6.52c-19.43-33.86-38.86-67.71-58.28-101.57
				c-0.35,0.83-0.78,1.62-1.31,2.35c3.52-4.55,7.04-9.11,10.55-13.66c-0.89,1.11-1.74,1.96-2.84,2.86
				c4.55-3.52,9.11-7.04,13.66-10.55c-0.73,0.53-1.5,0.99-2.33,1.36c5.37-2.27,10.75-4.54,16.12-6.8c-1.33,0.52-2.47,0.83-3.88,1.05
				c5.98-0.8,11.96-1.61,17.94-2.41c-0.45,0.02-0.9,0.04-1.35,0.06c22.5,22.5,45,45,67.5,67.5c-2.4-76.93-0.58-153.95,5.46-230.68
				c0.35-9.29-1.59-17.96-5.81-26.01c-2.72-8.37-7.37-15.61-13.96-21.72c-11.71-11.71-30.92-20.52-47.73-19.77
				c-17.46,0.78-35.56,6.52-47.73,19.77c-3.52,4.55-7.04,9.11-10.55,13.66c-6.11,10.53-9.18,21.88-9.22,34.07
				c-2.98,28.93-5.96,57.86-8.94,86.79c44.2-5.98,88.39-11.96,132.59-17.94c-0.27-1.87-0.54-3.74-0.79-5.61
				c0.8,5.98,1.61,11.96,2.41,17.94c-4.61-35.01-4.59-70.42-0.03-105.43c-0.8,5.98-1.61,11.96-2.41,17.94
				c2.53-18.73,6.34-37.23,11.43-55.43c-43.39-11.96-86.79-23.93-130.18-35.89c-1.37,8.46-2.73,16.92-4.1,25.38
				c44.2,5.98,88.39,11.96,132.59,17.94c0.33-2.68,0.34-5.2,0.07-7.89c-0.79-7.9-1.33-16.31-3.87-23.91
				c-2.27-5.37-4.54-10.75-6.8-16.12c-4.24-7.87-10.04-14.18-17.39-18.94c-4.21-4.18-9.18-7.08-14.89-8.68
				c-8.04-4.23-16.71-6.16-26.01-5.81c-45.78,0.24-91.52-2.65-136.91-8.65c-9.29-0.35-17.96,1.59-26.01,5.81
				c-8.37,2.72-15.61,7.37-21.72,13.96c-11.71,11.71-20.52,30.92-19.77,47.73c0.78,17.46,6.52,35.56,19.77,47.73
				c4.55,3.52,9.11,7.04,13.66,10.55C219.06,295.2,230.41,298.27,242.6,298.31L242.6,298.31z"/>
		</g>
	</g>
	<g>
		<g>
			<path class="st8" d="M815.49,364.54c-38.32-19.61-79.39-34.27-122.11-40.22c-14.68-2.05-29.34-4.11-44.14-4.93
				c-9.65-0.54-19.3-0.61-28.77,2.37c-24.21,7.63-43.74,25.83-50.56,50.69c-4.13,15.08-1.87,28.99-0.84,44.04
				c0.69,10.1,1.21,20.22,1.55,30.34c0.79,23.18,0.66,46.38-0.32,69.55c-0.35,9.29,1.59,17.96,5.81,26.01
				c2.72,8.37,7.37,15.61,13.96,21.72c4.55,3.52,9.11,7.04,13.66,10.55c10.53,6.11,21.88,9.18,34.07,9.22
				c20.02,1.51,40.06,3.01,60.15,3.19c25.29,0.23,49.75-3.04,74.8-6.5c-5.98,0.8-11.96,1.61-17.94,2.41
				c4.99-0.63,9.9-0.95,14.9-0.29c-5.98-0.8-11.96-1.61-17.94-2.41c2.16,0.41,4.16,0.97,6.21,1.78c-5.37-2.27-10.75-4.54-16.12-6.8
				c0.49,0.24,0.99,0.48,1.48,0.71c10.53,6.11,21.88,9.18,34.07,9.22c12.18-0.04,23.54-3.11,34.07-9.22
				c21.23-12.42,32.36-34.2,33.43-58.28c2.13-48.03,1.63-96.15-1.49-144.12c-1.12-17.2-6.56-35.6-19.77-47.73
				c-13.54-12.43-29.19-18.93-47.73-19.77c-27.05-1.22-54.12-2.08-81.2-2.57c-17.11-0.31-35.71,7.75-47.73,19.77
				c-11.71,11.71-20.52,30.92-19.77,47.73c0.78,17.46,6.52,35.56,19.77,47.73c13.34,12.25,29.33,19.44,47.73,19.77
				c27.08,0.49,54.15,1.35,81.2,2.57c-22.5-22.5-45-45-67.5-67.5c3.12,47.98,3.62,96.09,1.49,144.12
				c33.86-19.43,67.71-38.86,101.57-58.28c-7.51-3.62-15.53-7.68-23.81-9.3c-8.1-1.58-16.94-3.07-25.31-2.79
				c-12.06,0.39-24.01,2.96-35.95,4.61c5.98-0.8,11.96-1.61,17.94-2.41c-35.4,4.61-71.08,2.05-106.52-0.62
				c22.5,22.5,45,45,67.5,67.5c0.9-21.21,1.09-42.45,0.5-63.68c-0.29-10.45-0.76-20.89-1.41-31.32c-0.33-5.22-0.7-10.43-1.12-15.64
				c-0.39-4.83-1.35-9.89-0.92-14.73c-0.8,5.98-1.61,11.96-2.41,17.94c0.1-0.41,0.2-0.83,0.3-1.24c-2.27,5.37-4.54,10.75-6.8,16.12
				c0.18-0.37,0.36-0.74,0.54-1.11c-3.52,4.55-7.04,9.11-10.55,13.66c0.28-0.31,0.56-0.62,0.84-0.93
				c-4.55,3.52-9.11,7.04-13.66,10.55c0.4-0.23,0.8-0.47,1.2-0.7c-5.37,2.27-10.75,4.54-16.12,6.8c0.45-0.12,0.91-0.24,1.36-0.36
				c-5.98,0.8-11.96,1.61-17.94,2.41c11.54-0.95,24,1.12,35.44,2.62c-5.98-0.8-11.96-1.61-17.94-2.41
				c28.84,3.95,56.99,11.6,83.85,22.8c-5.37-2.27-10.75-4.54-16.12-6.8c7.81,3.3,15.48,6.88,23.03,10.75
				c16.14,8.26,34.15,11.72,52.01,6.8c15.66-4.31,32.62-16.42,40.34-31.02c8.28-15.67,12.43-34.64,6.8-52.01
				C841.26,388.68,831.13,372.55,815.49,364.54L815.49,364.54z"/>
		</g>
	</g>
	<g>
		<g>
			<path class="st8" d="M1142.02,322.96c-29.5,2.06-60.21,3.55-89.65,0.02c5.98,0.8,11.96,1.61,17.94,2.41
				c-5.98-0.81-11.76-2.1-17.37-4.32c5.37,2.27,10.75,4.54,16.12,6.8c-8.1-3.53-13.99-8-23.3-10.57
				c-24.01-6.61-50.39,1.18-67.84,18.67c-5.51,5.52-10.61,11.71-14.13,18.69c-7.7,15.24-9.18,23.62-10.8,40.58
				c-1.48,15.45-0.63,31.42-0.18,46.91c0.47,16.47,1.42,32.92,2.85,49.33c0.63,7.22,1.33,14.44,2.16,21.64
				c1.82,15.77,2.39,25.35,10.58,39.33c9.41,16.05,26.33,29.81,44.73,33.98c12.31,2.79,25.44,3.71,38.06,5.02
				c8.38,0.87,16.78,1.54,25.19,1.99c16.18,0.88,32.39,0.99,48.58,0.34c7.77-0.31,15.53-0.8,23.28-1.47
				c17.73-1.53,35.54-2.43,51.51-11.31c23.85-13.26,38.87-39.66,38.04-67.03c-0.25-8.12-1.99-16.43-3.02-24.49
				c-2.34-18.4-4.68-36.8-7.02-55.2c-1.17-9.2-2.34-18.4-3.51-27.6c-1.08-8.46-3.21-17.46-2.62-26c-0.8,5.98-1.61,11.96-2.41,17.94
				c0.11-1.08,0.35-2.12,0.71-3.15c-2.27,5.37-4.54,10.75-6.8,16.12c0.31-0.9,0.74-1.73,1.3-2.5c-3.52,4.55-7.04,9.11-10.55,13.66
				c0.49-0.65,1.07-1.22,1.72-1.71c-4.55,3.52-9.11,7.04-13.66,10.55c0.65-0.49,1.36-0.88,2.11-1.18
				c-5.37,2.27-10.75,4.54-16.12,6.8c0.73-0.29,1.49-0.47,2.28-0.53c-5.98,0.8-11.96,1.61-17.94,2.41c0.38,0.01,0.76,0.01,1.13,0.02
				c-5.98-0.8-11.96-1.61-17.94-2.41c0.36,0.08,0.73,0.15,1.09,0.23c-5.37-2.27-10.75-4.54-16.12-6.8c0.74,0.23,1.39,0.62,1.95,1.15
				c7.75,4.93,16.11,7.6,25.1,8.01c8.97,2.01,17.94,1.61,26.92-1.21c15.66-4.31,32.62-16.42,40.34-31.02
				c8.28-15.67,12.43-34.64,6.8-52.01c-2.27-5.37-4.54-10.75-6.8-16.12c-6-10.14-14.07-18.21-24.22-24.22
				c-0.56-0.53-1.21-0.91-1.95-1.15c-5.37-2.27-10.75-4.54-16.12-6.8c-5.52-1.59-14.44-2.49-20.17-2.66
				c-12.93-0.38-27.47,4.41-38.46,10.93c-5.19,3.08-11.16,7.9-15.38,12.26c-3.98,4.11-8.82,10.35-11.53,15.42
				c-6.7,12.55-10.35,25.24-10.36,39.59c-0.01,7.45,1.54,15.02,2.48,22.39c0.96,7.56,1.92,15.11,2.88,22.67
				c1.92,15.11,3.84,30.23,5.76,45.34c0.96,7.56,1.92,15.11,2.88,22.67c0.88,6.95,2.7,14.38,2.18,21.39
				c0.8-5.98,1.61-11.96,2.41-17.94c-0.1,0.89-0.33,1.75-0.69,2.58c2.27-5.37,4.54-10.75,6.8-16.12c-0.22,0.38-0.44,0.75-0.66,1.13
				c3.52-4.55,7.04-9.11,10.55-13.66c-0.3,0.33-0.6,0.65-0.91,0.98c4.55-3.52,9.11-7.04,13.66-10.55c-0.67,0.56-1.43,0.98-2.26,1.25
				c5.37-2.27,10.75-4.54,16.12-6.8c-0.84,0.27-1.71,0.47-2.59,0.58c5.98-0.8,11.96-1.61,17.94-2.41
				c-42.15,5.27-85.29,4.4-127.35-1.19c5.98,0.8,11.96,1.61,17.94,2.41c-2.05-0.28-4.02-0.55-5.99-1.19
				c5.37,2.27,10.75,4.54,16.12,6.8c-0.4-0.2-0.81-0.41-1.21-0.61c4.55,3.52,9.11,7.04,13.66,10.55c-0.35-0.28-0.7-0.57-1.05-0.85
				c3.52,4.55,7.04,9.11,10.55,13.66c-0.62-0.66-1.08-1.43-1.38-2.28c2.27,5.37,4.54,10.75,6.8,16.12c-0.3-0.87-0.51-1.76-0.63-2.68
				c0.8,5.98,1.61,11.96,2.41,17.94c-2.53-20.05-3.9-40.31-4.76-60.49c-0.42-9.88-0.67-19.76-0.75-29.64
				c-0.07-9.64-0.53-19.53,0.51-29.13c-0.8,5.98-1.61,11.96-2.41,17.94c0.32-2.25,0.8-4.38,1.59-6.51
				c-2.27,5.37-4.54,10.75-6.8,16.12c0.54-1.2,1.11-2.2,1.86-3.28c-3.52,4.55-7.04,9.11-10.55,13.66c0.5-0.65,1.08-1.23,1.72-1.75
				c-4.55,3.52-9.11,7.04-13.66,10.55c0.66-0.53,1.38-0.96,2.16-1.31c-22.71,0-45.42,0-68.14,0c8.09,5.04,17.39,8.63,26.33,11.71
				c4.13,1.42,8.4,2.3,12.71,2.96c15.19,2.31,29.94,3.72,45.23,4.1c21.34,0.53,42.7,0,63.99-1.49c9.29,0.35,17.96-1.59,26.01-5.81
				c8.37-2.72,15.61-7.37,21.72-13.96c11.71-11.71,20.52-30.92,19.77-47.73c-0.78-17.46-6.52-35.56-19.77-47.73
				C1177.08,331.1,1159.8,321.72,1142.02,322.96L1142.02,322.96z"/>
		</g>
	</g>
	<g>
		<g>
			<path class="st8" d="M1552.04,341.75c-3.75,2.15-7.51,4.29-11.26,6.44c-7.87,4.24-14.18,10.04-18.94,17.39
				c-5.97,6.52-9.99,14.17-12.08,22.95c-2.81,8.97-3.21,17.94-1.21,26.92c0.41,8.98,3.08,17.35,8.01,25.1
				c3.52,4.55,7.04,9.11,10.55,13.66c8.42,8.37,18.35,14.15,29.79,17.36c5.98,0.8,11.96,1.61,17.94,2.41
				c12.18-0.04,23.54-3.11,34.07-9.22c3.75-2.15,7.51-4.29,11.26-6.44c7.87-4.24,14.18-10.04,18.94-17.39
				c5.97-6.52,9.99-14.17,12.08-22.95c2.81-8.97,3.21-17.94,1.21-26.92c-0.41-8.98-3.08-17.35-8.01-25.1
				c-3.52-4.55-7.04-9.11-10.55-13.66c-8.42-8.37-18.35-14.15-29.79-17.36c-5.98-0.8-11.96-1.61-17.94-2.41
				C1573.92,332.57,1562.57,335.64,1552.04,341.75L1552.04,341.75z"/>
		</g>
	</g>
	<g>
		<g>
			<path class="st8" d="M1581.43,402.12c-0.78-1.36-1.46-2.7-2.1-4.14c2.27,5.37,4.54,10.75,6.8,16.12
				c-1.14-2.93-1.88-5.85-2.31-8.97c0.8,5.98,1.61,11.96,2.41,17.94c-0.23-2.61-0.23-5.13,0.01-7.74
				c-0.8,5.98-1.61,11.96-2.41,17.94c0.43-3.11,1.18-6.03,2.33-8.96c-2.27,5.37-4.54,10.75-6.8,16.12c1.06-2.35,2.29-4.49,3.79-6.59
				c-3.52,4.55-7.04,9.11-10.55,13.66c1.87-2.36,3.92-4.39,6.28-6.27c-4.55,3.52-9.11,7.04-13.66,10.55
				c2.44-1.76,4.96-3.2,7.73-4.39c-5.37,2.27-10.75,4.54-16.12,6.8c2.81-1.07,5.61-1.8,8.59-2.23c-5.98,0.8-11.96,1.61-17.94,2.41
				c1.99-0.19,3.93-0.23,5.93-0.13c0-45,0-90,0-135c-20.33,0.46-40.19,5.5-60.26,8.25c5.98-0.8,11.96-1.61,17.94-2.41
				c-7.38,0.92-14.64,1.31-22.03,0.34c5.98,0.8,11.96,1.61,17.94,2.41c-5.02-0.77-9.85-2.06-14.54-4.03
				c5.37,2.27,10.75,4.54,16.12,6.8c-3.26-1.48-6.29-3.22-9.15-5.38c4.55,3.52,9.11,7.04,13.66,10.55
				c-2.04-1.65-3.85-3.43-5.53-5.45c3.52,4.55,7.04,9.11,10.55,13.66c-1.61-2.11-2.92-4.3-4.02-6.71c2.27,5.37,4.54,10.75,6.8,16.12
				c-1.65-4.11-2.36-8.4-3.37-12.68c-2.08-8.86-5.54-17.74-10.22-25.48c-4.55-7.53-10.22-14.68-16.73-20.67
				c-3.09-2.84-6.2-5.49-8.8-8.81c3.52,4.55,7.04,9.11,10.55,13.66c-1.75-2.45-3.17-5-4.4-7.75c2.27,5.37,4.54,10.75,6.8,16.12
				c-1.91-4.74-3.05-9.61-3.81-14.66c0.8,5.98,1.61,11.96,2.41,17.94c-1.76-13.32-1.58-26.93-2.04-40.34
				c-0.51-14.93-1.01-29.85-1.52-44.78c-0.57-16.89-6.94-35.95-19.77-47.73c-4.55-3.52-9.11-7.04-13.66-10.55
				c-7.75-4.93-16.11-7.6-25.1-8.01c-5.98-1.61-11.96-1.61-17.94,0c-8.98,0.41-17.35,3.08-25.1,8.01
				c-14.08,9.08-27.8,23.25-31.02,40.34c-8.06,42.86-10.27,86.03-9.04,129.53c1.07,37.84,3.91,75.64,3.79,113.51
				c-0.07,21.45-1.15,42.88-3.96,64.15c0.8-5.98,1.61-11.96,2.41-17.94c-0.85,6.17-1.84,12.3-2.98,18.42
				c-3.21,11.96-3.21,23.93,0,35.89c2.09,8.78,6.12,16.44,12.08,22.95c4.76,7.35,11.07,13.14,18.94,17.39
				c10.53,6.11,21.88,9.18,34.07,9.22c33.42,1.17,66.88,1.14,100.3-0.16c8.1-0.32,16.21-0.65,24.3-1.17
				c8.61-0.56,17.57-1.34,25.9-3.45c6.43-1.63,12.92-4.83,18.84-7.67c4.03-1.93,6.68-4.41,10.49-7.35c7.89-6.1,8.03-6.2,14.13-14.1
				c2.52-3.27,5.22-6.2,7.12-9.81c3.82-7.23,7.45-15.48,9.09-23.66c2.66-13.34,4.25-26.98,5.71-40.48
				c2.01-18.67,2.22-37.48,0.8-56.2c0.35-9.29-1.59-17.96-5.81-26.01c-2.72-8.37-7.37-15.61-13.96-21.72
				c-11.71-11.71-30.92-20.52-47.73-19.77c-17.46,0.78-35.56,6.52-47.73,19.77c-11.59,12.62-21.12,30-19.77,47.73
				c1.62,21.33,1.04,42.7-1.73,63.91c0.8-5.98,1.61-11.96,2.41-17.94c-0.99,7.21-1.64,14.92-4.34,21.73
				c2.27-5.37,4.54-10.75,6.8-16.12c-0.64,1.32-1.29,2.43-2.15,3.61c3.52-4.55,7.04-9.11,10.55-13.66c-0.6,0.74-1.27,1.4-2.02,1.99
				c4.55-3.52,9.11-7.04,13.66-10.55c-1.2,0.85-2.31,1.47-3.66,2.07c5.37-2.27,10.75-4.54,16.12-6.8c-1.84,0.65-3.65,1.09-5.58,1.42
				c5.98-0.8,11.96-1.61,17.94-2.41c-10.02,1.29-20.3,1.31-30.39,1.69c-11.14,0.43-22.28,0.71-33.43,0.86
				c-21.97,0.29-43.93,0.03-65.89-0.74c21.7,28.48,43.39,56.96,65.09,85.44c8-42.89,10.19-86.03,8.94-129.55
				c-1.09-37.84-3.92-75.63-3.77-113.51c0.08-21.44,1.18-42.88,4.02-64.14c-0.8,5.98-1.61,11.96-2.41,17.94
				c0.86-6.16,1.85-12.3,3-18.42c-44.2-5.98-88.39-11.96-132.59-17.94c0.83,24.5,1.3,49.04,2.53,73.52
				c0.52,10.39,1.96,20.84,3.67,31.07c1.27,7.61,3.96,14.03,6.98,21.19c5.23,12.39,10.96,21.42,20.27,31.81
				c3.5,3.91,7.82,6.96,11.25,10.94c-3.52-4.55-7.04-9.11-10.55-13.66c1.34,1.75,2.38,3.51,3.29,5.51
				c-2.27-5.37-4.54-10.75-6.8-16.12c1.99,5.27,2.54,10.89,4.25,16.24c5.09,15.93,11.63,26.77,22.42,39.33
				c6.1,7.1,14.1,12.83,21.87,17.91c1.87,1.22,3.83,2.25,5.86,3.19c6.86,3.2,13.98,6.4,21.2,8.77c32.61,10.73,64.73,1.68,97.37-2.83
				c-5.98,0.8-11.96,1.61-17.94,2.41c4.31-0.54,8.6-0.91,12.94-1.01c17.55-0.39,35.22-7.26,47.73-19.77
				c11.71-11.71,20.52-30.92,19.77-47.73c-0.78-17.46-6.52-35.56-19.77-47.73c-13.57-12.46-29.16-18.84-47.73-19.77
				c-35.82-1.79-69.12,18.94-88.08,48.28c-9.45,14.62-13.87,33.65-14.28,50.88c-0.43,17.91,4.97,36.38,13.83,51.82
				c8.4,14.65,24.11,26.55,40.34,31.02c8.97,2.81,17.94,3.21,26.92,1.21c8.98-0.41,17.35-3.08,25.1-8.01
				c14.41-9.29,27.1-23.13,31.02-40.34C1592.29,436.32,1590.68,418.24,1581.43,402.12L1581.43,402.12z"/>
		</g>
	</g>
	<g>
		<g>
			<path class="st8" d="M1737.67,216.48c-6.92,78.01-10.05,156.34-9.26,234.66c0.22,22.14,0.76,44.27,1.6,66.39
				c0.67,17.71,7.07,35.03,19.77,47.73c11.71,11.71,30.92,20.52,47.73,19.77c17.46-0.78,35.56-6.52,47.73-19.77
				c11.86-12.92,20.45-29.7,19.77-47.73c-2.95-78.26-2.08-156.65,2.69-234.82c1.35-22.1,3.02-44.18,4.97-66.23
				c0.35-9.29-1.59-17.96-5.81-26.01c-2.72-8.37-7.37-15.61-13.96-21.72c-11.71-11.71-30.92-20.52-47.73-19.77
				c-17.46,0.78-35.56,6.52-47.73,19.77c-3.52,4.55-7.04,9.11-10.55,13.66C1740.78,192.94,1737.71,204.3,1737.67,216.48
				L1737.67,216.48z"/>
		</g>
	</g>
	<g>
		<g>
			<path class="st8" d="M1812.98,583.39c17.31,0,35.49-7.53,47.73-19.77c11.71-11.71,20.52-30.92,19.77-47.73
				c-0.78-17.46-6.52-35.56-19.77-47.73c-13.21-12.12-29.44-19.77-47.73-19.77c-17.31,0-35.49,7.53-47.73,19.77
				c-11.71,11.71-20.52,30.92-19.77,47.73c0.78,17.46,6.52,35.56,19.77,47.73C1778.46,575.74,1794.69,583.39,1812.98,583.39
				L1812.98,583.39z"/>
		</g>
	</g>
	<g>
		<g>
			<path class="st8" d="M2195.86,451.64c-25.24-0.51-50.48-1.02-75.72-1.53c-12.29-0.25-24.58-0.5-36.86-0.75
				c-12.62-0.26-25.59,0.3-38.15-0.87c11.36,3.07,22.71,6.14,34.07,9.22c-0.36-0.19-0.73-0.38-1.09-0.57
				c8.07,8.07,16.14,16.14,24.22,24.22c-0.15-0.3-0.31-0.6-0.46-0.89c3.07,11.36,6.14,22.71,9.22,34.07
				c-0.02-0.35-0.03-0.71-0.05-1.06c-0.8,5.98-1.61,11.96-2.41,17.94c4.22-26.48,9.04-52.81,10.07-79.69
				c1.05-27.29-1.85-53.88-5.49-80.9c0.8,5.98,1.61,11.96,2.41,17.94c-0.23-1.84-0.34-3.45-0.22-5.3
				c-0.8,5.98-1.61,11.96-2.41,17.94c0.15-0.56,0.3-1.12,0.45-1.68c-2.27,5.37-4.54,10.75-6.8,16.12c0.29-0.73,0.7-1.39,1.22-1.99
				c-3.52,4.55-7.04,9.11-10.55,13.66c0.27-0.26,0.54-0.52,0.81-0.78c-4.55,3.52-9.11,7.04-13.66,10.55c0.6-0.49,1.24-0.88,1.95-1.2
				c-5.37,2.27-10.75,4.54-16.12,6.8c1.18-0.46,2.27-0.76,3.51-1.01c-5.98,0.8-11.96,1.61-17.94,2.41
				c9.14-1.17,18.94,0.9,28.11,1.39c11.03,0.59,22.07,0.83,33.12,0.73c10.72-0.1,21.43-0.52,32.13-1.28
				c5.18-0.36,10.36-0.81,15.53-1.32c5.34-0.53,10.89-1.72,16.26-1.65c-5.98-0.8-11.96-1.61-17.94-2.41
				c0.42,0.1,0.84,0.19,1.26,0.29c-5.37-2.27-10.75-4.54-16.12-6.8c0.36,0.23,0.72,0.46,1.07,0.69
				c-8.07-8.07-16.14-16.14-24.22-24.22c0.23,0.33,0.45,0.65,0.68,0.98c-2.27-5.37-4.54-10.75-6.8-16.12
				c0.11,0.39,0.23,0.77,0.34,1.16c-0.8-5.98-1.61-11.96-2.41-17.94c0.58,6.64-0.41,13.67-0.7,20.32
				c-0.32,7.26-0.64,14.52-0.96,21.77c-0.63,14.34-1.01,28.73-1.93,43.06c0.8-5.98,1.61-11.96,2.41-17.94
				c-0.07,0.99-0.3,1.94-0.69,2.84c2.27-5.37,4.54-10.75,6.8-16.12c-0.27,0.4-0.54,0.79-0.8,1.19c3.52-4.55,7.04-9.11,10.55-13.66
				c-0.32,0.25-0.63,0.51-0.95,0.76c4.55-3.52,9.11-7.04,13.66-10.55c-0.37,0.17-0.73,0.34-1.1,0.51c5.37-2.27,10.75-4.54,16.12-6.8
				c-0.8,0.26-1.62,0.42-2.46,0.48c5.98-0.8,11.96-1.61,17.94-2.41c-11.13,0.79-22.35,0.75-33.5,0.39
				c-16.96-0.54-35.87,7.91-47.73,19.77c-11.71,11.71-20.52,30.92-19.77,47.73c0.78,17.46,6.52,35.56,19.77,47.73
				c13.44,12.34,29.25,19.18,47.73,19.77c10.74,0.34,21.52,0.35,32.24-0.3c7.26-0.44,14.59-1.3,21.67-2.98
				c4.15-0.99,13.6-5.15,17.23-7.31c4-2.39,11.36-8.01,14.61-11.31c8.77-8.93,14.97-20.46,18.63-32.35
				c2.32-7.55,2.51-15.92,2.87-23.87c0.98-22.1,1.95-44.21,2.93-66.31c0.21-4.78,0.62-9.6,0.44-14.38
				c-0.5-13.56-3.22-24.5-10.24-36.2c-5.82-9.7-14.52-18.29-24.22-24.22c-4.89-2.99-12.9-6.37-18.46-7.78
				c-10.68-2.71-19.86-2.29-30.32-1.17c-5.49,0.59-10.99,1.09-16.5,1.51c-21.7,1.65-43.5,1.95-65.24,0.91
				c-16.88-0.81-32.07-3.08-48.98,0.87c-19.31,4.51-36.15,17.34-46.61,34.01c-7.03,11.2-10.73,24.52-10.89,37.74
				c-0.1,8.44,1.76,16.77,2.89,25.14c-0.8-5.98-1.61-11.96-2.41-17.94c4.09,31.67,4.04,63.68-0.12,95.34
				c0.8-5.98,1.61-11.96,2.41-17.94c-1.12,8.22-2.57,16.36-4.15,24.51c-1.32,6.81-3.18,14.46-2.97,20.89
				c0.39,12.25,3.12,24.41,9.27,35.13c6.04,10.53,14.61,18.59,24.68,25.11c10.54,6.82,22.94,8.95,35.16,9.78
				c16.61,1.13,33.46,0.77,50.11,1.11c33.54,0.68,67.09,1.36,100.63,2.04c17.09,0.35,35.73-7.77,47.73-19.77
				c11.71-11.71,20.52-30.92,19.77-47.73c-0.78-17.46-6.52-35.56-19.77-47.73C2230.23,459.15,2214.27,452.01,2195.86,451.64
				L2195.86,451.64z"/>
		</g>
	</g>
	<g>
		<g>
			<path class="st8" d="M2534.81,625.49c-13.34-39.52-22.85-80.21-28.5-121.53c0.8,5.98,1.61,11.96,2.41,17.94
				c-6.77-50.6-7.7-101.84-2.64-152.64c-22.5,22.5-45,45-67.5,67.5c48.16,3.17,96.48,3.13,144.63-0.13
				c-21.7-28.48-43.39-56.96-65.09-85.44c-2.56,7.8-4.36,15.75-5.57,23.86c-2.01,13.5-3.86,27-4.33,40.64
				c-0.57,16.66,0.34,33.32,0.69,49.97c0.74,35.29-0.26,70.62-2.99,105.81c-1.57,20.21-3.72,40.36-6.41,60.45
				c0.8-5.98,1.61-11.96,2.41-17.94c-1.32,9.72-2.76,19.42-4.32,29.1c21.7-16.52,43.39-33.04,65.09-49.56
				c-43.85-3.7-87.79-6.07-131.78-7.09c-35.01-0.82-69.51,31.61-67.5,67.5c0.86,15.46,3.51,28.26,11.66,41.68
				c6.8,11.2,18.26,23.77,30.46,29.21c10.53,6.11,21.88,9.18,34.07,9.22c9.29,0.35,17.96-1.59,26.01-5.81
				c8.37-2.72,15.61-7.37,21.72-13.96c8.37-8.42,14.15-18.35,17.36-29.79c13.66-63.32,31.14-125.78,52.34-186.99
				c-44.2-5.98-88.39-11.96-132.59-17.94c4.63,40.43,11.66,80.28,22.58,119.5c4.72,16.96,10.03,33.76,15.81,50.39
				c2.71,7.8,5.42,15.62,8.52,23.27c3.33,8.18,6.44,16.82,10.85,24.55c4.33,7.59,10.06,14.69,15.87,21.16
				c1.34,1.49,2.82,2.78,4.37,4.05c5.4,4.43,10.93,9.38,17.13,12.72c14.77,7.93,25.37,10.05,41.85,11.75
				c1.81,0.19,3.52,0.29,5.34,0.19c6.73-0.38,14.63-1.2,21.16-2.98c6.53-1.79,13.75-5.01,19.73-8.23
				c6.39-3.44,12.04-8.33,17.32-13.3c12.37-11.62,19.77-30.98,19.77-47.73c0-16.56-7.35-36.33-19.77-47.73
				c-12.86-11.81-29.75-20.58-47.73-19.77c-18.23,0.82-34.27,7.13-47.73,19.77c-0.62,0.63-1.29,1.21-2.01,1.72
				c4.55-3.52,9.11-7.04,13.66-10.55c-1.12,0.74-2.18,1.31-3.41,1.85c5.37-2.27,10.75-4.54,16.12-6.8
				c-1.26,0.44-2.45,0.76-3.76,1.01c5.98-0.8,11.96-1.61,17.94-2.41c-2.26,0.28-4.4,0.25-6.65-0.03c5.98,0.8,11.96,1.61,17.94,2.41
				c-2.29-0.42-4.41-1.05-6.55-1.94c5.37,2.27,10.75,4.54,16.12,6.8c-1.67-0.8-3.2-1.69-4.71-2.76c4.55,3.52,9.11,7.04,13.66,10.55
				c-2.39-1.89-4.42-4.02-6.31-6.41c3.52,4.55,7.04,9.11,10.55,13.66c-3.08-4.21-5.39-8.77-7.42-13.57
				c2.27,5.37,4.54,10.75,6.8,16.12c-10.55-25.9-18.81-53.04-26.07-80.02c-7.43-27.61-13.23-55.63-17.04-83.97
				c0.8,5.98,1.61,11.96,2.41,17.94c-0.49-3.74-0.95-7.48-1.38-11.22c0.35-9.29-1.59-17.96-5.81-26.01
				c-2.72-8.37-7.37-15.61-13.96-21.72c-4.55-3.52-9.11-7.04-13.66-10.55c-7.75-4.93-16.11-7.6-25.1-8.01
				c-5.98-1.61-11.96-1.61-17.94,0c-8.98,0.41-17.35,3.08-25.1,8.01c-4.55,3.52-9.11,7.04-13.66,10.55
				c-8.37,8.42-14.15,18.35-17.36,29.79c-21.19,61.22-38.67,123.67-52.34,186.99c33.05-13.45,66.1-26.89,99.16-40.34
				c-1.3-0.58-2.34-1.18-3.49-2.02c4.55,3.52,9.11,7.04,13.66,10.55c-0.7-0.57-1.35-1.2-1.93-1.89c3.52,4.55,7.04,9.11,10.55,13.66
				c-0.86-1.13-1.51-2.17-2.14-3.44c2.27,5.37,4.54,10.75,6.8,16.12c-0.51-1.33-0.82-2.49-1.05-3.9c0.8,5.98,1.61,11.96,2.41,17.94
				c-0.03-0.45-0.05-0.9-0.08-1.35c-22.5,22.5-45,45-67.5,67.5c43.99,1.02,87.94,3.39,131.78,7.09c5.98-0.8,11.96-1.61,17.94-2.41
				c8.78-2.09,16.44-6.12,22.95-12.08c10.6-8.19,21.97-21.31,24.19-35.06c12.24-75.67,18-151.72,15.73-228.34
				c-0.56-18.93-1.02-37.91,1.5-56.73c-0.8,5.98-1.61,11.96-2.41,17.94c1.22-8.42,3.04-16.67,5.7-24.76
				c3.21-11.96,3.21-23.93,0-35.89c-2.09-8.78-6.12-16.44-12.08-22.95c-4.76-7.35-11.07-13.14-18.94-17.39
				c-10.53-6.11-21.88-9.18-34.07-9.22c-48.15,3.26-96.47,3.3-144.63,0.13c-9.29-0.35-17.96,1.59-26.01,5.81
				c-8.37,2.72-15.61,7.37-21.72,13.96c-3.52,4.55-7.04,9.11-10.55,13.66c-6.11,10.53-9.18,21.88-9.22,34.07
				c-3.61,36.22-4.24,72.7-1.78,109.02c2.81,41.6,8.8,83.33,18.37,123.93c4.71,19.98,10.4,39.72,16.96,59.17
				c5.63,16.68,15.52,31.27,31.02,40.34c7.75,4.93,16.11,7.6,25.1,8.01c8.97,2.01,17.94,1.61,26.92-1.21
				c16.33-5.29,32.09-15.41,40.34-31.02C2536.22,661.95,2540.63,642.7,2534.81,625.49L2534.81,625.49z"/>
		</g>
	</g>
</g>
<g id="레이어_5">
	<g class="st9">
		<path class="st10" d="M487.89,223.91v309.6c0,54.02-28.47,82.8-82.8,82.8h-169.2c-54.33,0-82.8-28.79-82.8-82.8v-309.6
			c0-54.02,28.47-82.8,82.8-82.8h169.2C459.42,141.11,487.89,169.9,487.89,223.91z M441.09,533.52v-133.2h-36v-43.2h36v-133.2
			c0-31.27-9.77-39.6-39.6-39.6h-162c-29.83,0-39.6,8.33-39.6,39.6v309.6c0,31.27,9.77,39.6,39.6,39.6h162
			C431.33,573.12,441.09,564.78,441.09,533.52z M297.09,285.11h46.8v43.2h-46.8V285.11z M297.09,429.11h46.8v43.2h-46.8V429.11z"/>
		<path class="st10" d="M876.69,367.91v165.6c0,54.02-28.47,82.8-82.8,82.8h-169.2c-54.33,0-82.8-28.79-82.8-82.8v-165.6
			c0-54.02,28.47-82.8,82.8-82.8h169.2C848.22,285.11,876.69,313.9,876.69,367.91z M829.89,367.91c0-31.27-9.77-39.6-39.6-39.6h-162
			c-29.83,0-39.6,8.33-39.6,39.6v165.6c0,31.27,9.77,39.6,39.6,39.6h162c29.83,0,39.6-8.33,39.6-39.6V367.91z M685.89,429.11h46.8
			v43.2h-46.8V429.11z"/>
		<path class="st10" d="M1265.49,367.91v165.6c0,54.02-28.47,82.8-82.8,82.8h-169.2c-54.33,0-82.8-28.79-82.8-82.8v-165.6
			c0-54.02,28.47-82.8,82.8-82.8h169.2C1237.02,285.11,1265.49,313.9,1265.49,367.91z M1218.69,367.91c0-31.27-9.77-39.6-39.6-39.6
			h-162c-29.83,0-39.6,8.33-39.6,39.6v165.6c0,31.27,9.77,39.6,39.6,39.6h162c29.83,0,39.6-8.33,39.6-39.6V367.91z M1074.69,429.11
			h46.8v43.2h-46.8V429.11z"/>
		<path class="st10" d="M1654.29,367.91v165.6c0,54.02-28.47,82.8-82.8,82.8h-169.2c-54.33,0-82.8-28.79-82.8-82.8v-309.6
			c0-54.02,28.47-82.8,82.8-82.8h108v144h61.2C1625.81,285.11,1654.29,313.9,1654.29,367.91z M1607.48,533.52v-61.2h-36v-43.2h36
			v-61.2c0-31.27-9.77-39.6-39.6-39.6h-57.6v75h-46.8v-219h-57.6c-29.83,0-39.6,8.33-39.6,39.6v309.6c0,31.27,9.77,39.6,39.6,39.6
			h57.6v-75h46.8v75h57.6C1597.72,573.12,1607.48,564.78,1607.48,533.52z"/>
		<path class="st10" d="M1899.08,223.91v309.6c0,54.02-28.47,82.8-82.8,82.8h-25.2c-54.33,0-82.8-28.79-82.8-82.8v-309.6
			c0-54.02,28.47-82.8,82.8-82.8h25.2C1870.61,141.11,1899.08,169.9,1899.08,223.91z M1755.08,223.91v61.2h97.2v-61.2
			c0-31.27-9.77-39.6-39.6-39.6h-18C1764.85,184.31,1755.08,192.65,1755.08,223.91z M1852.28,533.52v-205.2h-97.2v205.2
			c0,31.27,9.77,39.6,39.6,39.6h18C1842.51,573.12,1852.28,564.78,1852.28,533.52z"/>
		<path class="st10" d="M2287.88,367.91v165.6c0,54.02-28.47,82.8-82.8,82.8h-169.2c-54.33,0-82.8-28.79-82.8-82.8v-165.6
			c0-54.02,28.47-82.8,82.8-82.8h169.2C2259.41,285.11,2287.88,313.9,2287.88,367.91z M2241.08,367.91c0-31.27-9.77-39.6-39.6-39.6
			h-162c-29.83,0-39.6,8.33-39.6,39.6v165.6c0,31.27,9.77,39.6,39.6,39.6h57.6v-144h46.8v144h57.6c29.83,0,39.6-8.33,39.6-39.6
			V367.91z"/>
		<path class="st10" d="M2676.67,367.91v309.6c0,54.02-28.47,82.8-82.8,82.8h-169.2c-54.33,0-82.8-28.79-82.8-82.8v-309.6
			c0-54.02,28.47-82.8,82.8-82.8h169.2C2648.2,285.11,2676.67,313.9,2676.67,367.91z M2629.87,367.91c0-31.27-9.77-39.6-39.6-39.6
			h-162c-29.83,0-39.6,8.33-39.6,39.6v205.2h144v43.2h-144v61.2c0,31.27,9.77,39.6,39.6,39.6h162c29.83,0,39.6-8.33,39.6-39.6
			V367.91z M2485.87,429.11h46.8v43.2h-46.8V429.11z"/>
	</g>
</g>
</svg>
