<?xml version="1.0" encoding="utf-8"?>
<!-- Generator: Adobe Illustrator 25.4.1, SVG Export Plug-In . SVG Version: 6.00 Build 0)  -->
<svg version="1.1" id="레이어_1" xmlns="http://www.w3.org/2000/svg" xmlns:xlink="http://www.w3.org/1999/xlink" x="0px"
	 y="0px" viewBox="0 0 2000 1000" style="enable-background:new 0 0 2000 1000;" xml:space="preserve">
<style type="text/css">
	.st0{fill:#5CB08E;}
	.st1{fill:#E64340;}
	.st2{fill:#333333;}
</style>
<g>
	<g>
		<path id="SVGID_00000020385902653816267040000002290835021998752419_" class="st0" d="M648.2,203.6H312.9
			c-19.8,0-36.7,16.1-36.7,36.7v453.5c0,21.3,16.9,38.2,38.2,38.2h333.1c4.4,0,8.1-2.9,10.3-6.6c1.5-4.4,0.7-8.8-2.2-11.7
			c-13.2-13.9-13.2-24.9,0-38.9l0,0c0.7-0.7,1.5-1.5,1.5-2.2v-0.7c0.7-0.7,0.7-1.5,0.7-2.9l0,0c0-0.7,0-1.5,0-2.2v-452
			C659.2,208.7,654.8,203.6,648.2,203.6z M359.1,371.6v-87.3h220.1v87.3H359.1z M626.9,709.9H314.4c-8.8,0-16.1-7.3-16.1-16.1
			c0-3.7,1.5-7.3,3.7-10.3l7.3-5.1c1.5-0.7,3.7-0.7,5.1-0.7h11.7h300.8C622.5,688.6,622.5,698.9,626.9,709.9z"/>
	</g>
</g>
<g>
	<g>
		<path id="SVGID_00000119822567928018126280000006682186655158936507_" class="st1" d="M897.8,265.8
			c-73.8,0-118.7,64.4-118.7,116.8c0,114.2,129.4,219.6,220.9,287.2c91.5-67.5,220.9-172.9,220.9-287.2
			c0-52.4-44.8-116.8-118.7-116.8c-41,0-76.4,32.8-102.2,63.7C973.5,298.6,938.8,265.8,897.8,265.8z"/>
	</g>
</g>
<g>
	<g>
		<path id="SVGID_00000030453607248751856320000010389052558616542348_" class="st2" d="M1347.6,322.2
			c0-68.3,55.7-123.9,123.9-123.9s123.9,55.7,123.9,123.9s-55.7,123-123.9,123S1347.6,389.6,1347.6,322.2z M1674.6,680.6
			c-1.8-106-87.1-193.1-193.1-198.5c-55.7-2.7-109.6,17.1-150,55.7c-40.4,38.6-62.9,90.7-62.9,147.3c0,28.7,24.3,52.1,53,52.1h300
			c14.4,0,27.8-5.4,37.7-15.3c9.9-9.9,15.3-23.4,15.3-36.8l0,0l0,0V680.6z"/>
	</g>
</g>
</svg>
