<?xml version="1.0" encoding="utf-8"?>
<!-- Generator: Adobe Illustrator 25.4.1, SVG Export Plug-In . SVG Version: 6.00 Build 0)  -->
<svg version="1.1"
	 id="레이어_1" xmlns:cc="http://creativecommons.org/ns#" xmlns:dc="http://purl.org/dc/elements/1.1/" xmlns:inkscape="http://www.inkscape.org/namespaces/inkscape" xmlns:rdf="http://www.w3.org/1999/02/22-rdf-syntax-ns#" xmlns:sodipodi="http://sodipodi.sourceforge.net/DTD/sodipodi-0.dtd" xmlns:svg="http://www.w3.org/2000/svg"
	 xmlns="http://www.w3.org/2000/svg" xmlns:xlink="http://www.w3.org/1999/xlink" x="0px" y="0px" viewBox="0 0 100 125"
	 style="enable-background:new 0 0 100 125;" xml:space="preserve">
<style type="text/css">
	.st0{fill:#333333;}
</style>
<g transform="translate(0,-952.36218)">
	<path class="st0" d="M7,973.9c-1.7,0-3,1.3-3,3s1.3,3,3,3h11.6l10.3,48.7c0.4,1.8,1.6,3.4,3.1,3.3h50c1.6,0,3-1.4,3-3s-1.5-3-3-3
		H34.5l-1.3-6H86c1.3,0,2.6-1,2.9-2.3l7-30c0.4-1.7-1.1-3.6-2.9-3.7H25.6l-1.6-7.6c-0.3-1.3-1.6-2.4-2.9-2.4L7,973.9z M26.8,989.9
		h15.6l1.5,9H28.7L26.8,989.9z M48.6,989.9h18.9l-1.5,9H50.1L48.6,989.9z M73.6,989.9h15.7l-2.1,9H72.1L73.6,989.9z M30,1004.9H45
		l1.5,9H31.9L30,1004.9z M51.1,1004.9H65l-1.5,9H52.6L51.1,1004.9z M71.1,1004.9h14.7l-2.1,9H69.6L71.1,1004.9z M43,1035.9
		c-5.5,0-10,4.5-10,10s4.5,10,10,10s10-4.5,10-10S48.5,1035.9,43,1035.9L43,1035.9z M71,1035.9c-5.5,0-10,4.5-10,10s4.5,10,10,10
		s10-4.5,10-10S76.5,1035.9,71,1035.9L71,1035.9z M43,1041.9c2.2,0,4,1.8,4,4c0,2.2-1.8,4-4,4c-2.2,0-4-1.8-4-4
		C39,1043.6,40.8,1041.9,43,1041.9z M71,1041.9c2.2,0,4,1.8,4,4c0,2.2-1.8,4-4,4c-2.2,0-4-1.8-4-4C67,1043.6,68.8,1041.9,71,1041.9z
		"/>
</g>
</svg>
