<?xml version="1.0" encoding="utf-8"?>
<!-- Generator: Adobe Illustrator 25.4.0, SVG Export Plug-In . SVG Version: 6.00 Build 0)  -->
<svg version="1.1" id="레이어_1" xmlns="http://www.w3.org/2000/svg" xmlns:xlink="http://www.w3.org/1999/xlink" x="0px"
	 y="0px" viewBox="0 0 400 60" style="enable-background:new 0 0 400 60;" xml:space="preserve">
<style type="text/css">
	.st0{fill:#EBE0A6;}
</style>
<g id="레이어_2">
</g>
<path class="st0" d="M365.6,54.2H34.4c-12.5,0-22.6-10.1-22.6-22.6v-3.1C11.8,16,21.9,5.8,34.4,5.8h331.2
	c12.5,0,22.6,10.1,22.6,22.6v3.1C388.2,44,378.1,54.2,365.6,54.2z"/>
<g>
	<path d="M28.4,23.8c0-1,0.5-2.6,1.1-3.1c0.5-0.4,1.8-1,2.7-1c0.8,0,2.3,0.4,2.9,0.7c0.6,0.4,1.3,2,1.4,3.2v10
		c-0.1,1.2-0.6,2.9-1.2,3.4c-0.6,0.5-1.9,1-2.7,1c-0.8,0-2.2-0.4-2.8-0.8c-0.6-0.4-1.4-2.2-1.4-3.5L28.4,23.8z M30.2,24.6v8.3
		c0,1,0.3,2.3,0.7,2.6c0.3,0.3,1.1,0.6,1.6,0.6c0.4,0,1.2-0.3,1.5-0.7c0.3-0.3,0.6-1.6,0.6-2.5v-8.5c-0.1-0.9-0.4-2.1-0.7-2.4
		c-0.4-0.2-1.2-0.5-1.6-0.5c-0.5,0.1-1.2,0.4-1.5,0.7C30.5,22.6,30.2,23.8,30.2,24.6z M43.9,38.3c-0.3,0-0.9-0.2-0.9-0.4
		c0-1.3-0.1-4.1-0.1-5.3c0-1.2,0-3.3,0-3.9h-4.6c-0.2,0-0.4-0.4-0.4-0.8c0-0.4,0.2-0.8,0.4-0.9h4.5V20c0-0.2,0.5-0.5,0.9-0.5
		c0.4,0,0.9,0.2,0.9,0.5c0,0.7,0,2.9,0,4.2c0,1.4,0,4.4,0,5.9s0,4.2,0,5.3c0,1.1,0,2.4,0,2.5C44.8,38.1,44.1,38.3,43.9,38.3z"/>
	<path d="M51.2,17.9c0.3,0,0.6,0.6,0.6,0.9c0,0.3-0.3,0.9-0.7,0.9h-1.7c-0.2,0-0.5,0.1-0.5,0.1c0,0.2,0,0.7,0,1.1v7.5
		c0,0.2,0,0.5,0.1,0.6c0,0.1,0.2,0.2,0.5,0.2c0.5,0,2.4-0.4,2.9-0.6v-8.6c-0.1-0.7,0.1-1.6,0.4-1.8c0.2-0.1,0.8-0.3,1-0.3l3.2,0
		c0.3,0,0.6,0.6,0.6,0.9c0,0.3-0.4,0.9-0.7,0.9h-2.2c-0.2,0-0.4,0.1-0.4,0.1c0,0.1,0,0.7,0,1.1v7.5c0,0.2,0,0.5,0.1,0.6
		c0,0.1,0.2,0.2,0.5,0.2c0.5,0,2.2-0.4,2.7-0.7c0.2-0.1,0.4,0.2,0.6,0.6c0.1,0.4,0.2,0.9,0,1c-0.8,0.4-2.4,0.9-3.8,0.8
		c-0.6,0-1.3-0.2-1.5-0.4c-0.1,0-0.1,0-0.1-0.1c0,0-0.1-0.1-0.1-0.1c-0.7,0.3-2.5,0.6-3.7,0.6c-0.6,0-1.3-0.2-1.5-0.4
		c-0.2-0.1-0.5-0.9-0.5-1.5V20c0-0.7,0.1-1.6,0.4-1.8c0.2-0.1,0.8-0.3,1-0.3c0.2,0,0.9,0,1.3,0C50.2,17.9,51,17.9,51.2,17.9z
		 M63.7,38.1c-0.5,0.2-2,0.5-2.8,0.7c-0.8,0.2-2.6,0.4-3.5,0.3h-4c-0.3,0-0.9,0-1.2,0c-0.2,0-0.6,0-0.8,0c-0.6,0-1.4-0.2-1.5-0.4
		c-0.2-0.1-0.5-0.8-0.5-1.2v-4c0-0.2,0.5-0.4,1-0.4c0.4,0,0.8,0.2,0.9,0.4v3.1c0,0.2,0,0.5,0.1,0.6c0,0.1,0.5,0.2,0.9,0.2
		c0.3,0,1.5,0,2.2,0c0.7,0,2.2,0,2.8,0c0.6,0,2.2-0.2,3-0.3c0.8-0.2,2.3-0.5,2.8-0.8c0.2,0,0.6,0.4,0.6,0.7
		C63.9,37.4,63.9,38,63.7,38.1z M62.8,32.3c-0.3,0-0.9-0.2-0.9-0.4c0-1.3,0-3.5,0-4.3c0-0.8,0-2.3,0-2.9h-4.6
		c-0.2,0-0.4-0.4-0.4-0.8c0-0.4,0.2-0.8,0.4-0.9h4.5l0-4.6c0-0.2,0.5-0.5,0.9-0.5c0.4,0,0.9,0.2,0.9,0.5v13.6
		C63.7,32.2,63,32.4,62.8,32.3z"/>
	<path d="M76.2,27.8c-0.4,0.9-2.1,2.5-3.1,3c-0.1,0.1-0.5,0.1-0.5,0c-0.1,0-0.2-0.2-0.3-0.4c-0.1-0.1-0.2-0.3-0.2-0.5
		c-0.1-0.1,0-0.4,0.1-0.5c1-0.7,2.3-2,2.6-2.7c0.2-0.7,0.5-2.3,0.5-3.3v-2.3c-0.2,0-1.1,0-1.5,0c-0.5,0-1.3,0-1.4,0
		c-0.2,0-0.3-0.1-0.3-0.2c0-0.1-0.1-0.4-0.1-0.5c0-0.1,0-0.4,0.1-0.6c0-0.2,0.1-0.3,0.1-0.3h3v-1.7c0-0.3,0.5-0.5,0.9-0.5
		c0.3,0,0.9,0.2,0.9,0.4v1.8l3.3,0c0.1,0,0.4,0.4,0.4,0.8c0,0.4-0.1,0.8-0.2,0.8H77v2.3c0,0.7-0.1,1.9-0.3,2.5
		c0.3,0.3,1.2,1,1.7,1.4c0.5,0.4,1.5,1.3,2,1.7c0.1,0.2,0.1,0.6-0.1,1c-0.2,0.4-0.7,0.5-0.9,0.4C79,30.1,78,29.3,77.6,29
		C77.1,28.6,76.4,28.1,76.2,27.8z M88.6,39.3c-0.1,0.2-0.7,0.4-1,0.3c-0.3,0-0.8-0.4-0.8-0.6l0.4-3.7c0-0.2-0.1-0.5-0.1-0.7
		c0-0.1-0.5-0.2-0.9-0.2H75.9c-0.3,0-0.6-0.5-0.6-0.8s0.2-0.9,0.5-0.9H87c0.5,0,1.3,0.2,1.5,0.3c0.2,0.2,0.4,1,0.5,1.5L88.6,39.3z
		 M89.1,30.6c-0.1,0.2-0.5,0.4-0.9,0.4c-0.4,0-0.9-0.2-0.9-0.4l0-5.6c-0.4,0-1,0-1.3,0h-1l0,5.6C84.9,30.8,84.4,31,84,31
		c-0.4,0-0.9-0.2-0.9-0.4V18.2c0-0.2,0.5-0.5,0.9-0.5c0.4,0,0.9,0.2,0.9,0.4v5h2.3v-4.9c0-0.2,0.5-0.5,0.9-0.5
		c0.4,0,0.9,0.2,0.9,0.4V30.6z"/>
	<path d="M93.2,28.7c0,0,1.2,0.1,2,0.1c0.8,0,2.2,0,2.4,0c0.3,0,1.5,0,2.1,0s2.1,0,2.8,0c0.6,0,2.3-0.2,3.1-0.4
		c0.8-0.1,2.3-0.6,2.8-0.8c0.2,0,0.6,0.4,0.7,0.7c0.1,0.3,0,0.9-0.1,0.9c-0.5,0.2-2,0.6-2.9,0.7c-0.8,0.2-2.7,0.4-3.6,0.4h-3.9
		c-0.4,0-2.1,0-3,0c-0.9,0-2.4,0-2.6,0c-0.4,0-0.7-0.5-0.7-0.8C92.4,29.2,92.8,28.7,93.2,28.7z M106.3,36.7c-1.3,0-4.7,0-6.3,0
		c-1.5,0-3.7,0-3.7,0c-0.2,0-0.3,0.3-0.3,0.6V38c0,0.2,0.1,0.4,0.1,0.4c0.1,0.1,0.3,0.1,0.5,0.1h5.1c1,0,2.6,0,3.2-0.1
		c0.5,0,1.7-0.3,2.2-0.5c0.2-0.1,0.7,0.2,0.8,0.5c0.1,0.3,0.1,0.9-0.1,1c-0.7,0.2-1.8,0.5-2.6,0.6c-0.8,0.1-2.4,0.2-3.3,0.2
		c-0.3,0-0.6,0-0.9,0c-0.3,0-1,0-1.6,0h-3.6c-0.2,0-0.8-0.1-1-0.1c-0.3,0-0.6-0.6-0.6-1v-2.4c0-0.2,0-0.5,0.1-0.6
		c0-0.1,0.1-0.3,0.1-0.5c0.1-0.2,0.9-0.5,1.7-0.4h9.2c0.1,0,0.5,0,0.6-0.1c0,0,0-0.1,0-0.1s0-0.2,0.1-0.4c0-0.2-0.1-0.5-0.1-0.6
		c-0.1,0-0.4-0.1-0.6-0.1H94.8c-0.3,0-0.6-0.5-0.6-0.8c0-0.3,0.2-0.9,0.4-0.9h11.5c0.3,0,0.7,0.1,0.8,0.2c0.1,0,0.2,0.2,0.3,0.2
		c0.2,0.2,0.4,0.9,0.4,1.4c0,1-0.1,2-0.1,2.2C107.4,36.4,106.8,36.7,106.3,36.7z M96.1,24.5c0,0.2,0,0.5,0.1,0.6
		c0,0.1,0.4,0.2,0.9,0.2c0.5,0,2.9,0,4.3,0c1.4-0.1,4-0.4,4.8-0.8c0.2-0.1,0.5,0.3,0.8,0.6c0.1,0.4,0,0.9-0.1,1
		c-1,0.4-3.8,0.7-5.4,0.8C99.9,27,97.1,27,96.2,27c-0.6,0-1.3-0.2-1.5-0.4c-0.2-0.1-0.5-0.9-0.5-1.5l0-5.2c0-0.7,0.1-1.6,0.4-1.8
		c0.2-0.1,0.8-0.3,1-0.3c0.2,0,0.6,0,0.9,0c0.2,0,0.6,0,0.9,0h8.4c0.3,0,0.6,0.5,0.6,0.9c0,0.4-0.3,0.9-0.6,0.9h-9.2
		c-0.3,0-0.5,0.1-0.5,0.1c0,0.1,0,0.7,0,1.1L96.1,24.5z"/>
	<path d="M112.2,23.8c0-1,0.5-2.6,1.1-3.1c0.5-0.4,1.8-1,2.7-1c0.8,0,2.3,0.4,2.9,0.7c0.6,0.4,1.3,2,1.4,3.2v10
		c-0.1,1.2-0.6,2.9-1.2,3.4c-0.6,0.5-1.9,1-2.7,1c-0.8,0-2.2-0.4-2.8-0.8c-0.6-0.4-1.4-2.2-1.4-3.5L112.2,23.8z M114,24.6v8.3
		c0,1,0.3,2.3,0.7,2.6c0.3,0.3,1.1,0.6,1.6,0.6c0.4,0,1.2-0.3,1.5-0.7c0.3-0.3,0.6-1.6,0.6-2.5v-8.5c-0.1-0.9-0.4-2.1-0.7-2.4
		c-0.4-0.2-1.2-0.5-1.6-0.5c-0.5,0.1-1.2,0.4-1.5,0.7C114.2,22.6,114,23.8,114,24.6z M128.3,37.9c-0.1,0.2-0.5,0.4-0.9,0.4
		c-0.4,0-0.9-0.2-0.9-0.4l0-17.9c0-0.2,0.5-0.5,0.9-0.5c0.4,0,0.9,0.2,0.9,0.5V37.9z"/>
	<path d="M138.8,28.3c0,0.2,0,0.5,0.1,0.6c0,0.1,0.4,0.2,0.9,0.2c0.5,0.1,2.4,0.1,3.5,0c1-0.1,3.2-0.4,4-0.8
		c0.2-0.1,0.5,0.3,0.8,0.6c0.1,0.4,0,0.9-0.1,1c-1,0.4-3.3,0.8-4.6,0.8c-1.2,0.1-3.5,0.1-4.4,0.1c-0.6,0-1.3-0.2-1.5-0.4
		c-0.2-0.1-0.5-0.9-0.5-1.5l0-8.5c0-0.7,0.1-1.6,0.4-1.8c0.2-0.1,0.8-0.3,1-0.3c0.2,0,0.6,0,0.8,0c0.2,0,0.6,0,0.9,0h5.6
		c0.3,0,0.6,0.5,0.6,0.9c0,0.4-0.3,0.9-0.6,0.9h-6.3c-0.3,0-0.5,0.1-0.5,0.1c0,0.1,0,0.7,0,1.1L138.8,28.3z M148.4,32.6
		c1,0,2.6,0.4,3.1,0.9c0.5,0.5,1,1.5,1,2.1c0,0.6-0.3,1.8-0.7,2.3c-0.4,0.6-2,1.2-3.3,1.2l-5.7,0c-1.2,0-2.9-0.5-3.4-1
		c-0.5-0.5-1-1.6-1-2.2c0-0.6,0.4-1.7,0.8-2.2c0.4-0.5,2.2-1,3.5-1.1c0.3,0,1.9,0,2.8,0C146.7,32.6,148.2,32.6,148.4,32.6z
		 M147.6,34.3c-0.1,0-1.2,0-1.9,0c-0.7,0-1.8,0-2.1,0c-1,0-2.3,0.3-2.6,0.5c-0.3,0.2-0.5,0.8-0.5,1.1c0,0.4,0.3,1,0.6,1.2
		c0.3,0.2,1.6,0.4,2.5,0.4l4.2,0c1,0,2.2-0.3,2.4-0.6c0.2-0.3,0.4-0.9,0.4-1.1c0-0.2-0.4-0.7-0.7-0.9
		C149.6,34.5,148.5,34.3,147.6,34.3z M149.8,30.3v-12c0-0.2,0.5-0.5,0.9-0.5c0.4,0,0.9,0.2,0.9,0.5v4.9l3.2,0c0.2,0,0.4,0.5,0.4,0.9
		c0,0.4-0.3,0.9-0.5,0.9h-3.1v5.4c-0.1,0.2-0.5,0.4-0.9,0.4C150.3,30.8,149.8,30.6,149.8,30.3z"/>
	<path d="M157.4,29.1c0.6-0.4,1.6-1.6,2-2.2c0.4-0.6,1.1-1.8,1.3-2.2c0.4-0.7,0.5-2.8,0.6-4.1l0-1.9c0-0.3,0.5-0.5,1-0.5
		c0.4,0,0.9,0.4,0.9,0.6c0,2.4,0.1,4.5,0.1,4.6c0,0.1-0.1-1.4-0.1-2.6c0,1.3-0.1,3.2-0.3,4c0.8,1.1,2.9,3,4.3,3.9
		c0.2,0.2,0.1,0.7-0.1,1c-0.3,0.4-0.8,0.6-0.9,0.4c-1.2-0.7-3.5-2.7-4.1-3.6c-0.3,0.5-1,1.6-1.4,2.1c-0.4,0.6-1.5,1.5-2.1,1.9
		c-0.3,0.1-0.9-0.2-1.1-0.5C157.2,29.8,157.2,29.2,157.4,29.1z M174.2,38.1c-0.5,0.2-2,0.5-2.8,0.7c-0.8,0.2-2.6,0.4-3.5,0.3h-4
		c-0.3,0-0.9,0-1.2,0c-0.2,0-0.6,0-0.8,0c-0.6,0-1.4-0.2-1.5-0.4c-0.2-0.1-0.5-0.8-0.5-1.2v-4c0-0.2,0.5-0.4,1-0.4
		c0.4,0,0.8,0.2,0.9,0.4v3.1c0,0.2,0,0.5,0.1,0.6c0,0.1,0.5,0.2,0.9,0.2c0.3,0,1.5,0,2.2,0c0.7,0,2.2,0,2.8,0c0.6,0,2.2-0.2,3-0.3
		c0.8-0.2,2.3-0.5,2.8-0.8c0.2,0,0.6,0.4,0.6,0.7C174.4,37.4,174.4,38,174.2,38.1z M172.3,32.1l0-13.8c0-0.2,0.5-0.5,0.9-0.5
		c0.4,0,0.9,0.2,0.9,0.4l0,13.9c-0.1,0.2-0.5,0.4-0.9,0.4C172.8,32.6,172.3,32.4,172.3,32.1z"/>
	<path d="M176.9,28.7c0,0,1.2,0.1,2,0.1c0.8,0,2.2,0,2.4,0c0.3,0,1.5,0,2.1,0s2.1,0,2.8,0c0.6,0,2.3-0.2,3.1-0.4
		c0.8-0.1,2.3-0.6,2.8-0.8c0.2,0,0.6,0.4,0.7,0.7c0.1,0.3,0,0.9-0.1,0.9c-0.5,0.2-2,0.6-2.9,0.7c-0.8,0.2-2.7,0.4-3.6,0.4h-3.9
		c-0.4,0-2.1,0-3,0c-0.9,0-2.4,0-2.6,0c-0.4,0-0.7-0.5-0.7-0.8C176.2,29.2,176.5,28.7,176.9,28.7z M182.2,27.2c-1.3,0-3-1-3.6-1.8
		c-0.5-0.7-0.9-2.2-0.9-2.6c0-0.4,0.3-1.9,0.8-2.7c0.5-0.7,2.3-1.9,3.7-1.9h4.4c0.5,0,2,0.5,2.7,1.1c0.7,0.5,1.7,2.3,1.8,3.4
		c0,0.6-0.5,2.2-0.9,2.8c-0.5,0.7-2.1,1.6-3.3,1.6H182.2z M190.1,36.7c-1.3,0-4.7,0-6.3,0c-1.5,0-3.7,0-3.7,0
		c-0.2,0-0.3,0.3-0.3,0.6V38c0,0.2,0.1,0.4,0.1,0.4c0.1,0.1,0.3,0.1,0.5,0.1h5.1c1,0,2.6,0,3.2-0.1c0.5,0,1.7-0.3,2.2-0.5
		c0.2-0.1,0.7,0.2,0.8,0.5c0.1,0.3,0.1,0.9-0.2,1c-0.7,0.2-1.8,0.5-2.6,0.6c-0.8,0.1-2.4,0.2-3.3,0.2c-0.3,0-0.6,0-0.9,0
		c-0.3,0-1,0-1.6,0h-3.6c-0.2,0-0.8-0.1-1-0.1c-0.3,0-0.6-0.6-0.6-1v-2.4c0-0.2,0-0.5,0.1-0.6c0-0.1,0.1-0.3,0.1-0.5
		c0.1-0.2,0.9-0.5,1.7-0.4h9.2c0.1,0,0.5,0,0.6-0.1c0,0,0-0.1,0-0.1s0-0.2,0-0.4c0-0.2-0.1-0.5-0.1-0.6c-0.1,0-0.4-0.1-0.6-0.1
		h-10.3c-0.3,0-0.6-0.5-0.6-0.8c0-0.3,0.2-0.9,0.4-0.9h11.5c0.3,0,0.7,0.1,0.8,0.2c0.1,0,0.2,0.2,0.3,0.2c0.2,0.2,0.4,0.9,0.4,1.4
		c0,1-0.1,2-0.1,2.2C191.1,36.4,190.5,36.7,190.1,36.7z M189.2,22.8c0-0.8-0.7-2-1.2-2.3c-0.5-0.3-1.5-0.6-1.9-0.6l-3.3,0
		c-1,0-2.2,0.7-2.6,1.2c-0.4,0.4-0.6,1.4-0.6,1.6c0,0.3,0.2,1.2,0.5,1.7c0.3,0.5,1.5,1.1,2.6,1.1h3.7c0.9,0,2-0.4,2.3-0.8
		C189,24.2,189.2,23.3,189.2,22.8z"/>
	<path d="M207.7,19.8c0.2,0,0.7,0,0.9,0.1c0.2,0.1,0.5,0.2,0.7,0.3c0.2,0.1,0.3,0.5,0.4,0.8c0,0.2,0,0.8,0,1.1c0,1,0,4.3,0,6.9
		c0,1.3-0.4,3.9-0.8,5c-0.4,1.2-1.5,3.1-2.1,3.9c-0.1,0.2-0.7,0.2-1,0c-0.4-0.2-0.7-0.6-0.6-0.9c0.7-0.9,1.7-2.7,2-3.6
		c0.3-0.9,0.6-3.2,0.6-4.5c0-1.1,0-2.9,0-3.6c0-0.7,0-1.8,0-2.3c0-0.2,0-1.1-0.1-1.2c0-0.1-0.5-0.1-1-0.1c-1.5,0-3.9,0-4.6,0.1
		c-0.2,0-0.4-0.5-0.4-0.9c0-0.3,0.1-0.8,0.3-0.8c0.4,0,1.9,0,2.7,0C205.6,19.7,207.2,19.7,207.7,19.8z M218,37.9
		c-0.1,0.2-0.5,0.4-0.9,0.4c-0.4,0-0.9-0.2-0.9-0.4l0-17.9c0-0.2,0.5-0.5,0.9-0.5c0.4,0,0.9,0.2,0.9,0.5V37.9z"/>
	<path d="M222.5,35c0,0.2,0,0.5,0.1,0.6c0,0.1,0.5,0.2,0.9,0.2c0.6,0,2.4,0,3.5,0c1-0.1,3.2-0.4,4-0.8c0.2-0.1,0.5,0.3,0.8,0.6
		c0.1,0.4,0,0.9-0.1,1c-1,0.4-3.3,0.7-4.6,0.8s-3.5,0.1-4.4,0.1c-0.6,0-1.3-0.2-1.5-0.4c-0.2-0.1-0.5-0.9-0.5-1.5l0-13.7
		c0-0.7,0.2-1.6,0.4-1.8c0.2-0.1,0.8-0.3,1-0.3c0.2,0,0.6,0,0.9,0c0.2,0,0.6,0,0.9,0h5.6c0.3,0,0.6,0.5,0.6,0.9
		c0,0.4-0.3,0.9-0.6,0.9h-6.3c-0.3,0-0.5,0.1-0.5,0.1c0,0.1,0,0.7,0,1.1L222.5,35z M233.6,37.9l0-17.9c0-0.2,0.5-0.5,0.9-0.5
		c0.4,0,0.9,0.2,0.9,0.5v7.6c0.3,0,1,0,1.4,0c0.4,0,1.3,0,1.8,0c0.2,0,0.4,0.5,0.4,0.9c0,0.4-0.3,0.9-0.5,0.9
		c-0.5,0-1.4,0.1-1.8,0.1c-0.4,0-1.1,0-1.3,0v8.5c-0.1,0.2-0.5,0.4-0.9,0.4C234.1,38.3,233.6,38.1,233.6,37.9z"/>
	<path d="M242.1,19.7l6.9,0c0.3,0,0.6,0.1,0.8,0.1c0.1,0.1,0.3,0.2,0.4,0.2c0.2,0.1,0.4,0.9,0.4,1.4l0,6.5c0,0.5-1,1.1-1.4,1.2
		c-0.2,0.1-1.9,0.1-2.8,0.1c-0.9,0-2.5,0-2.5,0c-0.2,0-0.4,0.3-0.4,0.5V35c0,0.2,0,0.5,0.1,0.6c0,0.1,0.5,0.2,0.9,0.2
		c0.5,0,2.3,0,3.2,0c1-0.1,3-0.4,3.8-0.8c0.2-0.1,0.5,0.3,0.8,0.6c0.2,0.4,0,0.9-0.1,1c-1,0.4-3.2,0.7-4.3,0.8
		c-1.1,0.1-3.3,0.1-4.2,0.1c-0.6,0-1.3-0.2-1.5-0.4c-0.2-0.1-0.5-0.9-0.5-1.5l0-6.3c0-0.4,0.1-1,0.2-1.3c0.1-0.2,1-0.5,1.7-0.5
		c0.1,0,1.5,0,2.3,0c0.8,0,2.3,0,2.5,0c0.1,0,0.4-0.1,0.4-0.4v-5.4c-0.1-0.1-0.4-0.3-0.6-0.3c-0.1,0-1.9,0-3,0s-2.8,0-3,0
		c-0.2,0-0.5-0.5-0.5-0.8C241.7,20.2,241.9,19.7,242.1,19.7z M257.8,37.9c-0.1,0.2-0.6,0.4-0.9,0.4c-0.4,0-0.9-0.2-0.9-0.4l0-17.9
		c0-0.2,0.5-0.5,0.9-0.5c0.4,0,0.9,0.2,1,0.5V37.9z"/>
	<path d="M276.3,37.5c-0.3,0-1.7,0-2.7,0h-13c-0.3,0-0.6-0.5-0.6-0.9c0-0.3,0.3-0.9,0.6-0.9c0.8,0,2.4,0,3.1,0c0.7,0,2,0,2.5,0
		c0-0.4,0-2.5,0-3.7c0-1.2,0-3.1,0-3.4c0-0.1,0.5-0.3,1-0.3c0.4,0,0.9,0.2,0.9,0.3c0,0.2,0,2.2,0,3.3c0,1.2,0,3.3,0,3.7l8.3,0
		c0.3,0,0.5,0.6,0.5,0.9C276.8,37,276.6,37.6,276.3,37.5z M273.1,19.2c0.5,0,1.3,0.2,1.5,0.4c0.2,0.2,0.4,0.9,0.5,1.5
		c0,0.8,0,2.7,0,3.9c0,1.1-0.3,3.2-0.5,4.2c-0.3,1-1,2.7-1.4,3.5c-0.1,0.2-0.7,0.2-1,0c-0.4-0.2-0.7-0.6-0.6-0.9
		c0.4-0.9,1.1-2.5,1.3-3.3c0.2-0.7,0.4-2.5,0.4-3.7v-1.5c0-0.4,0-1.1,0-1.5c0-0.2-0.1-0.5-0.1-0.6c0,0-0.5-0.1-1-0.1H263
		c-0.2,0-0.4-0.5-0.4-0.9c0-0.4,0.1-0.8,0.4-0.9H273.1z"/>
	<path d="M285.7,22.1c0-1,0.5-2.6,1.1-3.1c0.5-0.4,1.8-1,2.7-1c0.8,0,2.2,0.3,2.8,0.8c0.6,0.4,1.4,1.9,1.4,3.1l0,4.2
		c0,1.2-0.7,2.9-1.2,3.4c-0.6,0.5-1.9,1-2.7,1c-0.8,0-2.2-0.4-2.8-0.8c-0.6-0.4-1.3-2.2-1.3-3.5V22.1z M287.5,22.9l0,2.4
		c0,1,0.3,2.3,0.7,2.6c0.3,0.3,1.2,0.6,1.6,0.6c0.5,0,1.2-0.3,1.5-0.7c0.3-0.3,0.6-1.6,0.6-2.5v-2.7c0-0.9-0.4-2.1-0.7-2.4
		c-0.4-0.2-1.1-0.5-1.6-0.4c-0.5,0-1.2,0.4-1.5,0.7C287.7,20.9,287.5,22.1,287.5,22.9z M297.7,33.1c0-0.2,0.4-0.5,0.8-0.5
		c0.4,0,0.8,0.3,0.8,0.5v1c0,0.5-0.1,1.5-0.2,1.8l3,2.2c0.2,0.2,0,0.7-0.1,1c-0.2,0.3-0.7,0.6-0.9,0.4l-2.8-2c0,0-0.2,0.2-0.3,0.3
		c-0.6,0.7-2.1,1.6-3,1.8c-0.2,0-0.5,0-0.5,0c-0.4-0.3-1.2-0.9-1.5-1.1c-0.4-0.2-0.9-0.7-1.2-0.9c0,0-0.2,0.2-0.2,0.3
		c-0.6,0.7-2.3,1.6-3.3,1.8c-0.3,0-0.6-0.4-0.6-0.8c-0.1-0.3,0-0.8,0.2-0.9c0.8-0.2,1.9-0.9,2.3-1.4c0.4-0.4,0.9-1.7,0.9-2.6l0-0.9
		c0-0.2,0.4-0.5,0.9-0.5c0.4,0,0.8,0.3,0.8,0.5v1c0,0.5-0.2,1.5-0.2,1.8l2.4,1.8c0.5-0.2,1.4-0.8,1.8-1.3c0.4-0.4,0.8-1.6,0.8-2.5
		V33.1z M301.8,30.1c-0.1,0.2-0.6,0.4-0.9,0.4c-0.4,0-0.9-0.2-0.9-0.4l0-11.8c0-0.2,0.5-0.5,0.9-0.5c0.4,0,0.9,0.2,1,0.5V30.1z"/>
	<path d="M304.7,28.7c0,0,1.2,0.1,2,0.1c0.7,0,2.2,0,2.4,0c0.3,0,1.5,0,2.1,0s2.1,0,2.8,0c0.6,0,2.3-0.2,3.1-0.4
		c0.8-0.1,2.3-0.6,2.8-0.8c0.2,0,0.6,0.4,0.7,0.7c0.1,0.3,0,0.9-0.1,0.9c-0.5,0.2-2,0.6-2.9,0.7c-0.8,0.2-2.7,0.4-3.6,0.4h-3.9
		c-0.3,0-2.1,0-3,0c-0.9,0-2.4,0-2.6,0c-0.3,0-0.7-0.5-0.7-0.8C303.9,29.2,304.3,28.7,304.7,28.7z M310,27.2c-1.3,0-3-1-3.6-1.8
		c-0.5-0.7-0.9-2.2-0.9-2.6c0-0.4,0.3-1.9,0.8-2.7c0.5-0.7,2.3-1.9,3.7-1.9h4.4c0.5,0,2,0.5,2.7,1.1c0.7,0.5,1.7,2.3,1.8,3.4
		c0,0.6-0.5,2.2-0.9,2.8c-0.5,0.7-2.1,1.6-3.3,1.6H310z M317.8,36.7c-1.3,0-4.7,0-6.3,0s-3.7,0-3.7,0c-0.2,0-0.3,0.3-0.3,0.6V38
		c0,0.2,0.1,0.4,0.2,0.4c0.1,0.1,0.3,0.1,0.5,0.1h5.1c1,0,2.6,0,3.2-0.1c0.5,0,1.7-0.3,2.2-0.5c0.2-0.1,0.7,0.2,0.8,0.5
		c0.1,0.3,0.1,0.9-0.2,1c-0.7,0.2-1.8,0.5-2.6,0.6c-0.7,0.1-2.4,0.2-3.3,0.2c-0.3,0-0.6,0-0.9,0c-0.3,0-1,0-1.6,0h-3.6
		c-0.2,0-0.8-0.1-1-0.1c-0.3,0-0.7-0.6-0.7-1v-2.4c0-0.2,0-0.5,0-0.6c0-0.1,0.1-0.3,0.2-0.5c0.1-0.2,0.9-0.5,1.7-0.4h9.2
		c0.1,0,0.5,0,0.6-0.1c0,0,0-0.1,0-0.1s0-0.2,0-0.4c0-0.2-0.1-0.5-0.1-0.6c-0.1,0-0.4-0.1-0.6-0.1h-10.3c-0.3,0-0.5-0.5-0.5-0.8
		c0-0.3,0.2-0.9,0.4-0.9h11.5c0.3,0,0.7,0.1,0.8,0.2c0.1,0,0.2,0.2,0.3,0.2c0.2,0.2,0.4,0.9,0.4,1.4c0,1-0.1,2-0.2,2.2
		C318.9,36.4,318.3,36.7,317.8,36.7z M317,22.8c0-0.8-0.7-2-1.2-2.3c-0.5-0.3-1.5-0.6-1.9-0.6l-3.3,0c-1,0-2.2,0.7-2.6,1.2
		c-0.3,0.4-0.6,1.4-0.6,1.6c0,0.3,0.2,1.2,0.5,1.7c0.3,0.5,1.5,1.1,2.6,1.1h3.7c0.9,0,2-0.4,2.3-0.8C316.7,24.2,316.9,23.3,317,22.8
		z"/>
	<path d="M324.5,36.9c0.5-0.8,1.3-3,1.5-4.2c0.2-1.2,0.3-3.3,0.3-4c0-1.1,0-2.9,0-3.6c0-0.7,0-1.8,0-2.3c0-0.2,0-1.1-0.1-1.2
		c0-0.1-0.5-0.1-1-0.1c-0.3,0-0.7,0-0.9,0c-0.2,0-0.6,0-0.8,0c-0.2-0.1-0.4-0.5-0.4-0.9c0-0.3,0.1-0.8,0.3-0.9c0.4,0,1.1,0,1.4,0
		c0.3,0,1,0,1.3,0c0.2,0,0.7,0,0.9,0.1c0.2,0.1,0.5,0.2,0.7,0.3c0.1,0.1,0.3,0.5,0.3,0.8c0,0.2,0,0.8,0,1.1c0,1,0,4.3,0,6.9
		c0,0.7-0.2,3-0.5,4.4c-0.2,1.3-1.1,3.7-1.7,4.5c-0.2,0.2-0.6,0.2-0.9,0C324.7,37.6,324.4,37.2,324.5,36.9z M329.8,36.9
		c0.5-0.8,1.3-3,1.5-4.2c0.2-1.2,0.3-3.3,0.3-4c0-1.1,0-2.9,0-3.6c0-0.7,0-1.8,0-2.3c0-0.2-0.1-1.1-0.1-1.2c0-0.1-0.5-0.1-1-0.1
		c-0.3,0-0.7,0-0.9,0c-0.2,0-0.6,0-0.8,0c-0.2-0.1-0.4-0.5-0.4-0.9c0-0.3,0.1-0.8,0.3-0.9c0.4,0,1.1,0,1.4,0c0.3,0,1,0,1.3,0
		c0.2,0,0.7,0,0.9,0.1c0.2,0.1,0.5,0.2,0.7,0.3c0.2,0.1,0.3,0.5,0.3,0.8c0,0.2,0,0.8,0,1.1c0,1,0,4.3,0,6.9c0,0.7-0.2,3-0.5,4.4
		c-0.2,1.3-1.1,3.7-1.7,4.5c-0.2,0.2-0.6,0.2-0.9,0C330,37.6,329.7,37.2,329.8,36.9z M336.4,37.9l0-17.9c0-0.2,0.5-0.5,0.9-0.5
		c0.4,0,0.9,0.2,0.9,0.5v7.6c0.3,0,1,0,1.4,0c0.4,0,1.3,0,1.8,0c0.2,0,0.4,0.5,0.4,0.9c0,0.4-0.3,0.9-0.5,0.9
		c-0.5,0-1.4,0.1-1.8,0.1c-0.4,0-1.1,0-1.3,0v8.5c-0.1,0.2-0.5,0.4-0.9,0.4C336.9,38.3,336.4,38.1,336.4,37.9z"/>
	<path d="M353.6,19.3c1,0,2.6,0.8,3.4,1.4c0.7,0.8,1.8,3.1,1.8,4.2c0,1.7-0.8,3.7-1.3,4.5c-0.4,0.5-1.2,1.1-2.1,1.4h0
		c0.4,0,0.9,0.2,0.9,0.4c0,0.2,0,1.2,0,1.9c0,0.7,0,2.1,0,2.7l3.7,0c0.3,0,0.5,0.6,0.5,0.9c0,0.4-0.3,0.9-0.5,0.9
		c-0.3,0-1.7,0-2.7,0h-13c-0.3,0-0.6-0.5-0.6-0.9c0-0.3,0.3-0.9,0.6-0.9l3.3,0c0-0.4,0-1.7,0-2.4s0-1.9,0-2.2c0-0.2,0.5-0.3,1-0.3
		c0.4,0,0.9,0.2,0.9,0.4c0,0.2,0,1.4,0,2.1c0,0.7,0,2.1,0,2.4l4.9,0c0-0.6,0-2,0-2.7c0-0.6,0-1.7,0-1.9v-0.1c-0.1,0-0.2,0.1-0.4,0.1
		h-3.8c-1.1,0-2.8-0.8-3.5-1.6c-0.7-0.8-1.7-3.1-1.7-4.3c0-1.1,0.9-3.5,1.5-4.3c0.6-0.8,2.4-1.6,3.6-1.7c1.1,0,2.4-0.1,2.6-0.1
		C353.1,19.3,353.4,19.3,353.6,19.3z M353.1,21c-0.1,0-0.5,0-0.9-0.1c-0.4,0-0.9,0-1.1,0.1c-0.9,0-2.3,0.5-2.7,1.1
		c-0.5,0.5-1.3,2.2-1.2,3.2c0,1.1,0.8,2.6,1.4,3.1c0.5,0.5,1.8,1,2.6,1h2.2c0.8,0,2.1-0.6,2.5-1.1c0.4-0.5,1-2.1,1.1-3.3
		c0-0.8-0.9-2.6-1.4-3.1C355,21.5,353.7,21,353.1,21z"/>
	<path d="M368,31.2c0,0.3,0,1.6,0,1.9c0,0.9-1.7,1-1.6-0.2l-0.1-0.8c0-0.6,0-1.7,0.1-2.3c0.1-0.5,0.3-0.9,0.6-1.2
		c0.4-0.4,1.3-1.1,1.6-1.4c0.3-0.2,2.1-1.1,1.7-3.4c-0.1-0.4-0.2-2.1-2.5-2.2c-0.4,0-0.7,0.1-1,0.2c-0.3,0.2-0.6,0.4-1,0.6
		c-0.2,0.3-0.2,0.3-0.5,0.7c-0.3,0.4-0.4,0.8-0.6,1.3c-0.3,0.8-1.8,0.7-1.7-0.3c0-0.6,0.1-1.2,0.5-1.7c0.3-0.5,0.7-1,1.1-1.3
		c0.5-0.4,1-0.7,1.6-0.9c0.6-0.2,1.2-0.3,1.6-0.3c0.5,0,1,0.1,1.4,0.3c0.5,0.2,0.9,0.5,1.3,0.8c0.3,0.4,0.7,0.8,1,1.3
		c0.2,0.5,0.3,1.1,0.3,1.8c0,1.9-0.3,2.5-0.7,3c-0.3,0.5-0.7,0.9-1.1,1.3c-0.5,0.5-0.9,0.8-1.4,1.1c-0.2,0.2-0.5,0.4-0.5,0.7
		C368,30.2,368,31,368,31.2z M366.3,36.1c0.5-0.6,1.5-0.3,1.8,0.2c0.4,0.7,0.4,1.3-0.1,1.9c-0.6,0.6-1.3,0.4-1.8,0
		C365.9,37.8,365.6,37,366.3,36.1z"/>
</g>
<g>
</g>
<g>
</g>
<g>
</g>
<g>
</g>
<g>
</g>
<g>
</g>
</svg>
