<?xml version="1.0" encoding="utf-8"?>
<!-- Generator: Adobe Illustrator 25.4.1, SVG Export Plug-In . SVG Version: 6.00 Build 0)  -->
<svg version="1.1" id="레이어_1" xmlns="http://www.w3.org/2000/svg" xmlns:xlink="http://www.w3.org/1999/xlink" x="0px"
	 y="0px" viewBox="0 0 100 125" style="enable-background:new 0 0 100 125;" xml:space="preserve">
<style type="text/css">
	.st0{fill:none;}
	.st1{fill:#333333;}
</style>
<g>
	<rect class="st0" width="100" height="100"/>
</g>
<g>
	<path class="st1" d="M46.5,98.3c9,0,17.3-2.9,24.1-7.7l18.9,18.9c0.7,0.7,1.5,1,2.4,1s1.7-0.3,2.4-1c1.3-1.3,1.3-3.5,0-4.8
		L75.9,86.2c7.7-7.6,12.5-18.1,12.5-29.8c0-23.1-18.8-41.9-41.9-41.9S4.6,33.3,4.6,56.4S23.4,98.3,46.5,98.3z M46.5,21.3
		c19.3,0,35.1,15.7,35.1,35.1S65.8,91.4,46.5,91.4S11.4,75.7,11.4,56.4S27.2,21.3,46.5,21.3z"/>
</g>
</svg>
